<?xml version="1.0" encoding="UTF-8"?>
<!DOCTYPE svg PUBLIC "-//W3C//DTD SVG 1.1//EN" "http://www.w3.org/Graphics/SVG/1.1/DTD/svg11.dtd">
<svg xmlns="http://www.w3.org/2000/svg" version="1.1" width="557px" height="1104px" style="shape-rendering:geometricPrecision; text-rendering:geometricPrecision; image-rendering:optimizeQuality; fill-rule:evenodd; clip-rule:evenodd" xmlns:xlink="http://www.w3.org/1999/xlink">
<g><path style="opacity:1" fill="#2e4a4b" d="M 278.5,67.5 C 278.423,66.2502 277.756,65.4169 276.5,65C 266.318,64.2921 258.985,59.4587 254.5,50.5C 254.918,49.7784 255.584,49.2784 256.5,49C 261.833,48.3333 267.167,48.3333 272.5,49C 277.524,51.5248 280.191,55.6915 280.5,61.5C 280.401,63.7986 279.734,65.7986 278.5,67.5 Z"/></g>
<g><path style="opacity:1" fill="#242a2f" d="M 254.5,50.5 C 258.985,59.4587 266.318,64.2921 276.5,65C 277.756,65.4169 278.423,66.2502 278.5,67.5C 277.225,71.7731 274.558,74.7731 270.5,76.5C 269.596,77.209 269.263,78.209 269.5,79.5C 269.336,82.1873 269.503,84.854 270,87.5C 270.377,88.9423 271.21,89.9423 272.5,90.5C 272.427,92.0269 273.094,93.0269 274.5,93.5C 276.878,95.8785 278.878,98.5451 280.5,101.5C 266.451,101.201 252.451,101.535 238.5,102.5C 241.764,100.577 244.764,98.2435 247.5,95.5C 250.089,94.5806 252.089,92.914 253.5,90.5C 254.289,90.2172 254.956,89.7172 255.5,89C 255.444,85.3062 255.277,81.4728 255,77.5C 252.873,75.8863 251.373,73.8863 250.5,71.5C 250.759,69.0107 249.759,67.344 247.5,66.5C 245.634,59.2675 247.967,53.9341 254.5,50.5 Z"/></g>
<g><path style="opacity:0.98" fill="#6f7378" d="M 247.5,66.5 C 249.759,67.344 250.759,69.0107 250.5,71.5C 248.75,70.3406 247.75,68.674 247.5,66.5 Z"/></g>
<g><path style="opacity:0.106" fill="#e3e4e5" d="M 270.5,76.5 C 270.938,76.4346 271.272,76.6012 271.5,77C 270.934,77.9947 270.267,78.828 269.5,79.5C 269.263,78.209 269.596,77.209 270.5,76.5 Z"/></g>
<g><path style="opacity:0.706" fill="#9ea0a3" d="M 272.5,90.5 C 273.906,90.9731 274.573,91.9731 274.5,93.5C 273.094,93.0269 272.427,92.0269 272.5,90.5 Z"/></g>
<g><path style="opacity:0.839" fill="#808387" d="M 253.5,90.5 C 252.089,92.914 250.089,94.5806 247.5,95.5C 248.911,93.086 250.911,91.4194 253.5,90.5 Z"/></g>
<g><path style="opacity:1" fill="#2f1713" d="M 280.5,101.5 C 280.833,101.5 281.167,101.5 281.5,101.5C 284.195,105.618 285.195,110.284 284.5,115.5C 268.204,112.892 255.037,118.225 245,131.5C 241.265,137.118 240.598,143.118 243,149.5C 244.646,151.609 245.812,153.943 246.5,156.5C 247.998,162.808 249.498,169.141 251,175.5C 256.484,186.487 265.318,192.32 277.5,193C 279.615,192.443 281.615,191.609 283.5,190.5C 284.107,190.624 284.44,190.957 284.5,191.5C 284.666,200.173 284.5,208.84 284,217.5C 281.362,222.064 277.529,225.064 272.5,226.5C 271.549,227.919 271.216,229.585 271.5,231.5C 271.5,239.833 271.5,248.167 271.5,256.5C 271.427,258.027 272.094,259.027 273.5,259.5C 275.167,263.167 277.833,265.833 281.5,267.5C 282.5,267.833 283.167,268.5 283.5,269.5C 284.262,271.262 285.596,272.262 287.5,272.5C 289.153,272.66 290.486,273.326 291.5,274.5C 297.465,277.818 303.465,281.151 309.5,284.5C 311.177,286.54 312.844,288.54 314.5,290.5C 314.402,292.553 315.069,294.22 316.5,295.5C 316.5,295.833 316.5,296.167 316.5,296.5C 317.791,303.893 317.457,311.226 315.5,318.5C 314.313,321.946 313.646,325.613 313.5,329.5C 311.369,334.152 310.369,339.152 310.5,344.5C 310.5,346.167 310.5,347.833 310.5,349.5C 309.085,350.289 307.585,350.956 306,351.5C 298.87,350.718 291.703,350.218 284.5,350C 280.173,349.562 276.673,347.729 274,344.5C 273.667,336.833 273.333,329.167 273,321.5C 270.921,315.753 267.088,311.586 261.5,309C 254.666,306.412 247.999,303.579 241.5,300.5C 241.573,298.973 240.906,297.973 239.5,297.5C 239.167,296.5 238.5,295.833 237.5,295.5C 236.833,294.167 235.833,293.167 234.5,292.5C 234.011,291.005 233.345,289.671 232.5,288.5C 231.232,286.095 230.565,283.428 230.5,280.5C 230.341,273.411 231.007,266.411 232.5,259.5C 233.674,258.486 234.34,257.153 234.5,255.5C 236.262,254.738 237.262,253.404 237.5,251.5C 237.5,251.167 237.5,250.833 237.5,250.5C 239.262,249.738 240.262,248.404 240.5,246.5C 242.557,239.659 243.557,232.659 243.5,225.5C 243.027,224.094 242.027,223.427 240.5,223.5C 239.21,222.942 238.377,221.942 238,220.5C 237.306,217.532 236.806,214.532 236.5,211.5C 237.655,199.028 238.322,186.528 238.5,174C 237.361,150.002 237.361,126.168 238.5,102.5C 252.451,101.535 266.451,101.201 280.5,101.5 Z"/></g>
<g><path style="opacity:1" fill="#596052" d="M 281.5,101.5 C 286.964,103.197 292.297,105.197 297.5,107.5C 298.733,109.796 300.733,111.13 303.5,111.5C 305.833,113.167 307.833,115.167 309.5,117.5C 310.167,118.833 311.167,119.833 312.5,120.5C 313.935,122.401 315.602,122.734 317.5,121.5C 314.139,128.956 315.139,135.622 320.5,141.5C 318.697,143.004 317.697,145.004 317.5,147.5C 317.858,151.243 319.191,154.576 321.5,157.5C 320.23,158.288 319.23,159.288 318.5,160.5C 317.272,161.306 316.272,162.306 315.5,163.5C 312.5,158.167 309.5,152.833 306.5,147.5C 309.026,134.923 304.692,125.423 293.5,119C 290.691,117.259 287.691,116.092 284.5,115.5C 285.195,110.284 284.195,105.618 281.5,101.5 Z"/></g>
<g><path style="opacity:0.012" fill="#d1d2ce" d="M 297.5,107.5 C 299.882,108.351 301.882,109.684 303.5,111.5C 300.733,111.13 298.733,109.796 297.5,107.5 Z"/></g>
<g><path style="opacity:1" fill="#62462b" d="M 284.5,115.5 C 287.691,116.092 290.691,117.259 293.5,119C 304.692,125.423 309.026,134.923 306.5,147.5C 304.852,151.429 303.185,155.429 301.5,159.5C 298.994,142.994 289.328,133.327 272.5,130.5C 258.079,133.587 249.412,142.254 246.5,156.5C 245.812,153.943 244.646,151.609 243,149.5C 240.598,143.118 241.265,137.118 245,131.5C 255.037,118.225 268.204,112.892 284.5,115.5 Z"/></g>
<g><path style="opacity:0.999" fill="#9f8a76" d="M 342.5,137.5 C 342.5,136.5 342.5,135.5 342.5,134.5C 332.823,133.828 325.49,129.328 320.5,121C 319.423,120.53 318.423,120.697 317.5,121.5C 318.957,119.215 320.957,117.382 323.5,116C 332.163,113.774 338.996,116.274 344,123.5C 344.667,127.167 344.667,130.833 344,134.5C 343.768,135.737 343.268,136.737 342.5,137.5 Z"/></g>
<g><path style="opacity:0.02" fill="#e4e5e3" d="M 309.5,117.5 C 311.5,117.5 312.5,118.5 312.5,120.5C 311.167,119.833 310.167,118.833 309.5,117.5 Z"/></g>
<g><path style="opacity:0.086" fill="#eae8e7" d="M 427.5,117.5 C 429.337,117.639 429.67,118.306 428.5,119.5C 427.702,119.043 427.369,118.376 427.5,117.5 Z"/></g>
<g><path style="opacity:1" fill="#5d4833" d="M 342.5,137.5 C 341.094,137.973 340.427,138.973 340.5,140.5C 338.938,140.733 337.605,141.4 336.5,142.5C 331.073,142.782 325.74,142.449 320.5,141.5C 315.139,135.622 314.139,128.956 317.5,121.5C 318.423,120.697 319.423,120.53 320.5,121C 325.49,129.328 332.823,133.828 342.5,134.5C 342.5,135.5 342.5,136.5 342.5,137.5 Z"/></g>
<g><path style="opacity:1" fill="#5c452d" d="M 301.5,159.5 C 299.891,168.327 296.891,176.66 292.5,184.5C 290.142,186.529 287.808,188.529 285.5,190.5C 285.5,191.167 285.167,191.5 284.5,191.5C 284.44,190.957 284.107,190.624 283.5,190.5C 281.615,191.609 279.615,192.443 277.5,193C 265.318,192.32 256.484,186.487 251,175.5C 249.498,169.141 247.998,162.808 246.5,156.5C 249.412,142.254 258.079,133.587 272.5,130.5C 289.328,133.327 298.994,142.994 301.5,159.5 Z"/></g>
<g><path style="opacity:0.035" fill="#e1deda" d="M 342.5,137.5 C 342.573,139.027 341.906,140.027 340.5,140.5C 340.427,138.973 341.094,137.973 342.5,137.5 Z"/></g>
<g><path style="opacity:0.427" fill="#cfc8c3" d="M 340.5,140.5 C 339.167,141.5 339.167,142.5 340.5,143.5C 338.901,143.768 337.568,143.434 336.5,142.5C 337.605,141.4 338.938,140.733 340.5,140.5 Z"/></g>
<g><path style="opacity:1" fill="#745c49" d="M 320.5,141.5 C 325.74,142.449 331.073,142.782 336.5,142.5C 337.568,143.434 338.901,143.768 340.5,143.5C 341.765,144.514 342.431,146.014 342.5,148C 342.687,151.441 341.687,154.441 339.5,157C 340.044,157.717 340.711,158.217 341.5,158.5C 341.489,160.017 340.823,161.184 339.5,162C 332.188,165.597 325.188,165.097 318.5,160.5C 319.23,159.288 320.23,158.288 321.5,157.5C 319.191,154.576 317.858,151.243 317.5,147.5C 317.697,145.004 318.697,143.004 320.5,141.5 Z"/></g>
<g><path style="opacity:1" fill="#5f5c50" d="M 306.5,147.5 C 309.5,152.833 312.5,158.167 315.5,163.5C 314.268,169.69 316.268,174.357 321.5,177.5C 321.333,189.505 321.5,201.505 322,213.5C 323.123,216.249 324.623,218.749 326.5,221C 325.263,221.232 324.263,221.732 323.5,222.5C 322.883,222.611 322.383,222.944 322,223.5C 321.501,227.152 321.335,230.818 321.5,234.5C 316.085,235.396 311.418,234.063 307.5,230.5C 302.359,224.587 299.859,217.587 300,209.5C 297.211,201.679 295.045,193.679 293.5,185.5C 293.5,184.833 293.167,184.5 292.5,184.5C 296.891,176.66 299.891,168.327 301.5,159.5C 303.185,155.429 304.852,151.429 306.5,147.5 Z"/></g>
<g><path style="opacity:1" fill="#7e614c" d="M 341.5,158.5 C 345.807,159.664 347.474,162.498 346.5,167C 346.475,171.532 344.808,175.365 341.5,178.5C 334.745,178.793 328.078,178.46 321.5,177.5C 316.268,174.357 314.268,169.69 315.5,163.5C 316.272,162.306 317.272,161.306 318.5,160.5C 325.188,165.097 332.188,165.597 339.5,162C 340.823,161.184 341.489,160.017 341.5,158.5 Z"/></g>
<g><path style="opacity:1" fill="#705d4d" d="M 321.5,177.5 C 328.078,178.46 334.745,178.793 341.5,178.5C 341.902,181.477 342.902,184.143 344.5,186.5C 344.5,186.833 344.5,187.167 344.5,187.5C 342.69,196.111 341.856,205.111 342,214.5C 341.044,215.579 340.211,216.745 339.5,218C 342.449,219.761 345.616,220.928 349,221.5C 352.466,220.591 355.966,219.924 359.5,219.5C 357.3,221.64 354.633,223.14 351.5,224C 347.867,224.149 344.534,224.982 341.5,226.5C 339.519,228.144 337.519,229.81 335.5,231.5C 331.88,229.547 328.88,226.881 326.5,223.5C 325.675,222.614 324.675,222.281 323.5,222.5C 324.263,221.732 325.263,221.232 326.5,221C 324.623,218.749 323.123,216.249 322,213.5C 321.5,201.505 321.333,189.505 321.5,177.5 Z"/></g>
<g><path style="opacity:0.522" fill="#cfcecb" d="M 344.5,187.5 C 344.5,187.167 344.5,186.833 344.5,186.5C 348.817,186.083 352.817,186.75 356.5,188.5C 352.534,187.838 348.534,187.505 344.5,187.5 Z"/></g>
<g><path style="opacity:0.063" fill="#e8e5e2" d="M 292.5,184.5 C 293.167,184.5 293.5,184.833 293.5,185.5C 291.507,188.167 288.84,189.834 285.5,190.5C 287.808,188.529 290.142,186.529 292.5,184.5 Z"/></g>
<g><path style="opacity:1" fill="#444649" d="M 344.5,187.5 C 348.534,187.505 352.534,187.838 356.5,188.5C 357.514,189.674 358.847,190.34 360.5,190.5C 364.778,193.621 366.778,197.955 366.5,203.5C 366.313,209.865 363.98,215.198 359.5,219.5C 355.966,219.924 352.466,220.591 349,221.5C 345.616,220.928 342.449,219.761 339.5,218C 340.211,216.745 341.044,215.579 342,214.5C 341.856,205.111 342.69,196.111 344.5,187.5 Z"/></g>
<g><path style="opacity:0.157" fill="#dddddb" d="M 356.5,188.5 C 358.38,188.229 359.713,188.896 360.5,190.5C 358.847,190.34 357.514,189.674 356.5,188.5 Z"/></g>
<g><path style="opacity:1" fill="#9b8671" d="M 323.5,222.5 C 324.675,222.281 325.675,222.614 326.5,223.5C 328.88,226.881 331.88,229.547 335.5,231.5C 337.519,229.81 339.519,228.144 341.5,226.5C 341.5,253.167 341.5,279.833 341.5,306.5C 338.863,303.011 336.363,299.345 334,295.5C 330.942,287.717 327.608,280.05 324,272.5C 323.292,271.619 322.458,270.953 321.5,270.5C 321.221,258.685 321.221,247.019 321.5,235.5C 321.5,235.167 321.5,234.833 321.5,234.5C 321.335,230.818 321.501,227.152 322,223.5C 322.383,222.944 322.883,222.611 323.5,222.5 Z"/></g>
<g><path style="opacity:0.455" fill="#aea4a3" d="M 240.5,223.5 C 242.027,223.427 243.027,224.094 243.5,225.5C 241.973,225.573 240.973,224.906 240.5,223.5 Z"/></g>
<g><path style="opacity:0.467" fill="#bbb3b1" d="M 272.5,226.5 C 273.261,228.259 272.928,229.926 271.5,231.5C 271.216,229.585 271.549,227.919 272.5,226.5 Z"/></g>
<g><path style="opacity:0.176" fill="#e9e9e7" d="M 307.5,230.5 C 311.418,234.063 316.085,235.396 321.5,234.5C 321.5,234.833 321.5,235.167 321.5,235.5C 318.15,235.665 314.817,235.498 311.5,235C 309.249,234.252 307.916,232.752 307.5,230.5 Z"/></g>
<g><path style="opacity:0.357" fill="#bcb4b3" d="M 240.5,246.5 C 240.262,248.404 239.262,249.738 237.5,250.5C 237.738,248.596 238.738,247.262 240.5,246.5 Z"/></g>
<g><path style="opacity:0.416" fill="#bbb3b2" d="M 237.5,251.5 C 237.262,253.404 236.262,254.738 234.5,255.5C 234.738,253.596 235.738,252.262 237.5,251.5 Z"/></g>
<g><path style="opacity:0.149" fill="#ccc6c5" d="M 234.5,255.5 C 234.34,257.153 233.674,258.486 232.5,259.5C 232.229,257.62 232.896,256.287 234.5,255.5 Z"/></g>
<g><path style="opacity:0.286" fill="#c7c1bf" d="M 271.5,256.5 C 272.906,256.973 273.573,257.973 273.5,259.5C 272.094,259.027 271.427,258.027 271.5,256.5 Z"/></g>
<g><path style="opacity:0.714" fill="#aca2a0" d="M 273.5,259.5 C 276.5,261.833 279.167,264.5 281.5,267.5C 277.833,265.833 275.167,263.167 273.5,259.5 Z"/></g>
<g><path style="opacity:0.008" fill="#e1dedd" d="M 283.5,269.5 C 285.632,269.554 286.965,270.554 287.5,272.5C 285.596,272.262 284.262,271.262 283.5,269.5 Z"/></g>
<g><path style="opacity:0.937" fill="#5e4a47" d="M 232.5,259.5 C 231.007,266.411 230.341,273.411 230.5,280.5C 229.353,276.354 229.186,272.02 230,267.5C 230.279,264.543 231.113,261.877 232.5,259.5 Z"/></g>
<g><path style="opacity:1" fill="#5f4a35" d="M 321.5,270.5 C 322.458,270.953 323.292,271.619 324,272.5C 327.608,280.05 330.942,287.717 334,295.5C 336.363,299.345 338.863,303.011 341.5,306.5C 341.5,308.167 341.5,309.833 341.5,311.5C 334.795,308.147 328.128,304.814 321.5,301.5C 321.262,291.095 321.262,280.762 321.5,270.5 Z"/></g>
<g><path style="opacity:0.067" fill="#e2dede" d="M 291.5,274.5 C 296.701,276.098 301.701,278.265 306.5,281C 308.063,281.759 309.063,282.926 309.5,284.5C 303.465,281.151 297.465,277.818 291.5,274.5 Z"/></g>
<g><path style="opacity:0.02" fill="#e3e0df" d="M 309.5,284.5 C 312.562,285.268 314.228,287.268 314.5,290.5C 312.844,288.54 311.177,286.54 309.5,284.5 Z"/></g>
<g><path style="opacity:0.012" fill="#dad5d4" d="M 232.5,288.5 C 233.345,289.671 234.011,291.005 234.5,292.5C 232.824,291.817 232.157,290.483 232.5,288.5 Z"/></g>
<g><path style="opacity:0.02" fill="#dfdbdb" d="M 234.5,292.5 C 235.833,293.167 236.833,294.167 237.5,295.5C 235.5,295.5 234.5,294.5 234.5,292.5 Z"/></g>
<g><path style="opacity:0.031" fill="#e8e6e5" d="M 314.5,290.5 C 315.931,291.78 316.598,293.447 316.5,295.5C 315.069,294.22 314.402,292.553 314.5,290.5 Z"/></g>
<g><path style="opacity:0.012" fill="#ebe9e9" d="M 237.5,295.5 C 238.5,295.833 239.167,296.5 239.5,297.5C 238.167,297.5 237.5,296.833 237.5,295.5 Z"/></g>
<g><path style="opacity:1" fill="#91443e" d="M 316.5,296.5 C 317.806,298.473 319.473,300.139 321.5,301.5C 328.128,304.814 334.795,308.147 341.5,311.5C 342.5,312.167 343.5,312.833 344.5,313.5C 346.355,315.033 348.188,316.7 350,318.5C 350.483,319.448 350.649,320.448 350.5,321.5C 343.256,312.285 335.756,312.285 328,321.5C 326.991,323.025 326.491,324.692 326.5,326.5C 325.07,326.579 323.736,326.246 322.5,325.5C 321.568,322.827 321.402,320.161 322,317.5C 320.473,319.221 319.473,321.221 319,323.5C 316.828,322.491 315.662,320.824 315.5,318.5C 317.457,311.226 317.791,303.893 316.5,296.5 Z"/></g>
<g><path style="opacity:0.769" fill="#858184" d="M 239.5,297.5 C 240.906,297.973 241.573,298.973 241.5,300.5C 241.784,302.415 241.451,304.081 240.5,305.5C 240.599,302.763 240.265,300.096 239.5,297.5 Z"/></g>
<g><path style="opacity:1" fill="#1d1f1e" d="M 241.5,300.5 C 247.999,303.579 254.666,306.412 261.5,309C 267.088,311.586 270.921,315.753 273,321.5C 273.333,329.167 273.667,336.833 274,344.5C 276.673,347.729 280.173,349.562 284.5,350C 291.703,350.218 298.87,350.718 306,351.5C 307.585,350.956 309.085,350.289 310.5,349.5C 310.5,351.167 310.5,352.833 310.5,354.5C 310.638,360.746 308.972,366.413 305.5,371.5C 294.976,371.447 284.643,370.78 274.5,369.5C 274.068,368.29 273.401,367.29 272.5,366.5C 271.662,366.158 271.328,365.492 271.5,364.5C 271.34,362.847 270.674,361.514 269.5,360.5C 268.514,356.03 268.181,351.363 268.5,346.5C 267.749,337.412 266.582,328.412 265,319.5C 258.568,316.987 252.068,316.987 245.5,319.5C 243.865,318.954 242.199,318.62 240.5,318.5C 241.417,315.995 241.417,313.662 240.5,311.5C 240.5,309.5 240.5,307.5 240.5,305.5C 241.451,304.081 241.784,302.415 241.5,300.5 Z"/></g>
<g><path style="opacity:1" fill="#632f27" d="M 350.5,321.5 C 351.973,337.85 344.639,344.016 328.5,340C 322.733,337.462 317.733,333.962 313.5,329.5C 313.646,325.613 314.313,321.946 315.5,318.5C 315.662,320.824 316.828,322.491 319,323.5C 319.473,321.221 320.473,319.221 322,317.5C 321.402,320.161 321.568,322.827 322.5,325.5C 323.736,326.246 325.07,326.579 326.5,326.5C 326.491,324.692 326.991,323.025 328,321.5C 335.756,312.285 343.256,312.285 350.5,321.5 Z"/></g>
<g><path style="opacity:1" fill="#284647" d="M 344.5,313.5 C 354.215,315.187 363.549,317.854 372.5,321.5C 376.163,324.8 380.496,326.8 385.5,327.5C 388.872,329.186 392.205,330.853 395.5,332.5C 400.152,336.831 405.486,340.165 411.5,342.5C 419.757,348.087 427.09,354.754 433.5,362.5C 434.5,364.167 435.833,365.5 437.5,366.5C 438.08,368.749 439.413,370.415 441.5,371.5C 444.2,373.234 446.2,375.568 447.5,378.5C 447.427,380.027 448.094,381.027 449.5,381.5C 452.241,383.975 454.241,386.975 455.5,390.5C 455.738,392.404 456.738,393.738 458.5,394.5C 458.5,394.833 458.5,395.167 458.5,395.5C 458.427,397.027 459.094,398.027 460.5,398.5C 461.674,399.514 462.34,400.847 462.5,402.5C 462.427,404.027 463.094,405.027 464.5,405.5C 464.5,405.833 464.5,406.167 464.5,406.5C 464.427,408.027 465.094,409.027 466.5,409.5C 473.137,421.778 477.804,434.778 480.5,448.5C 480.054,451.01 480.72,453.01 482.5,454.5C 483.434,455.568 483.768,456.901 483.5,458.5C 483.584,462.837 484.584,466.837 486.5,470.5C 491.608,499.45 491.608,528.45 486.5,557.5C 485.883,557.611 485.383,557.944 485,558.5C 483.971,563.144 483.138,567.81 482.5,572.5C 482.244,575.598 481.578,578.598 480.5,581.5C 478.589,581.574 477.422,582.574 477,584.5C 475.191,590.402 473.691,596.402 472.5,602.5C 456.415,634.327 436.582,663.66 413,690.5C 406.938,696.73 400.771,702.73 394.5,708.5C 382.24,718.973 368.907,727.973 354.5,735.5C 339.584,743.125 324.584,750.458 309.5,757.5C 305.438,758.632 301.438,759.965 297.5,761.5C 297.5,755.5 297.5,749.5 297.5,743.5C 298.167,740.167 296.833,738.167 293.5,737.5C 292.507,732.88 292.173,728.214 292.5,723.5C 293.708,722.766 295.041,722.433 296.5,722.5C 300.951,722.99 304.617,721.656 307.5,718.5C 309.553,718.598 311.22,717.931 312.5,716.5C 314.553,716.598 316.22,715.931 317.5,714.5C 319.38,714.771 320.713,714.104 321.5,712.5C 328.236,710.627 334.57,707.961 340.5,704.5C 343.331,703.921 345.664,702.588 347.5,700.5C 349.434,699.89 351.101,698.89 352.5,697.5C 354.853,696.66 356.853,695.326 358.5,693.5C 360.674,693.25 362.341,692.25 363.5,690.5C 366.117,689.214 368.45,687.547 370.5,685.5C 372.749,684.92 374.415,683.587 375.5,681.5C 376.5,681.167 377.167,680.5 377.5,679.5C 379.749,678.92 381.415,677.587 382.5,675.5C 383.833,674.833 384.833,673.833 385.5,672.5C 393.162,664.671 400.662,656.671 408,648.5C 413.355,641.114 418.188,633.448 422.5,625.5C 423.794,624.71 424.961,623.71 426,622.5C 428.328,618.02 430.828,613.687 433.5,609.5C 437.206,600.765 440.873,592.099 444.5,583.5C 446.655,581.383 447.655,578.716 447.5,575.5C 448.861,570.056 450.194,564.723 451.5,559.5C 453.872,553.519 454.872,547.185 454.5,540.5C 454.237,536.4 454.57,532.4 455.5,528.5C 456.833,523.167 456.833,517.833 455.5,512.5C 455.287,505.826 454.954,499.159 454.5,492.5C 454.495,489.006 454.162,485.34 453.5,481.5C 453.755,476.432 452.755,471.766 450.5,467.5C 447.852,459.247 445.352,450.914 443,442.5C 439.488,434.145 435.988,425.812 432.5,417.5C 432.622,413.403 430.956,410.403 427.5,408.5C 425.555,404.264 422.888,400.597 419.5,397.5C 418.19,394.527 416.19,392.193 413.5,390.5C 410.5,388.167 407.833,385.5 405.5,382.5C 404.415,380.413 402.749,379.08 400.5,378.5C 382.045,363.705 361.379,353.371 338.5,347.5C 337.432,346.566 336.099,346.232 334.5,346.5C 329.314,346.039 324.147,345.373 319,344.5C 317.744,344.648 316.577,344.982 315.5,345.5C 314.432,344.566 313.099,344.232 311.5,344.5C 311.167,344.5 310.833,344.5 310.5,344.5C 310.369,339.152 311.369,334.152 313.5,329.5C 317.733,333.962 322.733,337.462 328.5,340C 344.639,344.016 351.973,337.85 350.5,321.5C 350.649,320.448 350.483,319.448 350,318.5C 348.188,316.7 346.355,315.033 344.5,313.5 Z"/></g>
<g><path style="opacity:1" fill="#274546" d="M 240.5,311.5 C 241.417,313.662 241.417,315.995 240.5,318.5C 242.199,318.62 243.865,318.954 245.5,319.5C 252.068,316.987 258.568,316.987 265,319.5C 266.582,328.412 267.749,337.412 268.5,346.5C 248.805,348.07 230.139,353.237 212.5,362C 211.748,362.671 211.414,363.504 211.5,364.5C 210.778,364.082 210.278,363.416 210,362.5C 204.525,365.148 199.358,368.148 194.5,371.5C 193.508,371.328 192.842,371.662 192.5,372.5C 169.884,384.774 150.217,400.774 133.5,420.5C 131.413,421.585 130.08,423.251 129.5,425.5C 127.273,427.607 125.273,429.94 123.5,432.5C 122.559,434.05 121.893,435.716 121.5,437.5C 119.983,437.511 118.816,438.177 118,439.5C 116.248,442.672 114.248,445.672 112,448.5C 111.805,449.819 111.972,451.153 112.5,452.5C 111.603,451.402 110.77,451.402 110,452.5C 101.471,467.545 94.6379,483.212 89.5,499.5C 87.0954,504.112 85.762,509.112 85.5,514.5C 82.3322,528.679 80.3322,543.012 79.5,557.5C 79.1734,566.682 79.5067,575.682 80.5,584.5C 80.5,585.833 80.5,587.167 80.5,588.5C 80.3354,591.518 80.502,594.518 81,597.5C 81.0995,599.653 81.9328,601.319 83.5,602.5C 87.2522,619.768 93.9189,635.768 103.5,650.5C 103.427,652.027 104.094,653.027 105.5,653.5C 106.34,655.853 107.674,657.853 109.5,659.5C 109.5,660.833 110.167,661.5 111.5,661.5C 113.628,668.628 117.961,673.961 124.5,677.5C 129.248,682.584 134.581,686.917 140.5,690.5C 141.585,692.587 143.251,693.92 145.5,694.5C 146.262,696.262 147.596,697.262 149.5,697.5C 152.601,700.933 156.268,703.6 160.5,705.5C 161.353,707.893 163.019,709.226 165.5,709.5C 168.914,712.54 172.914,714.54 177.5,715.5C 182.583,717.401 187.583,719.567 192.5,722C 195.117,722.822 197.784,723.322 200.5,723.5C 200.833,724.833 201.167,724.833 201.5,723.5C 209.504,726.504 217.837,728.504 226.5,729.5C 227.568,730.434 228.901,730.768 230.5,730.5C 235.862,730.472 241.195,730.806 246.5,731.5C 246.808,733.924 246.474,736.257 245.5,738.5C 243.738,739.688 242.738,741.355 242.5,743.5C 241.613,752.801 241.279,762.134 241.5,771.5C 234.155,771.371 226.822,771.038 219.5,770.5C 217.898,768.926 215.898,768.259 213.5,768.5C 206.922,768.236 200.589,767.236 194.5,765.5C 192.485,764.076 190.152,763.41 187.5,763.5C 177.85,761.422 168.517,758.422 159.5,754.5C 159.027,753.094 158.027,752.427 156.5,752.5C 151.749,751.29 147.416,749.29 143.5,746.5C 140.024,743.377 136.024,741.043 131.5,739.5C 127.117,735.786 122.45,732.453 117.5,729.5C 105.479,717.812 93.4793,706.145 81.5,694.5C 79.2065,690.873 76.5398,687.539 73.5,684.5C 73.2624,682.596 72.2624,681.262 70.5,680.5C 69.9202,678.251 68.5869,676.585 66.5,675.5C 66.2624,673.596 65.2624,672.262 63.5,671.5C 63.573,669.973 62.9063,668.973 61.5,668.5C 61.573,666.973 60.9063,665.973 59.5,665.5C 59.573,663.973 58.9063,662.973 57.5,662.5C 55.9925,660.819 54.9925,658.819 54.5,656.5C 54.5979,654.447 53.9313,652.78 52.5,651.5C 51.596,650.791 51.2627,649.791 51.5,648.5C 51.405,646.214 50.7384,644.214 49.5,642.5C 46.8992,636.116 44.8992,629.449 43.5,622.5C 43.2576,618.521 42.2576,614.854 40.5,611.5C 38.1063,604.482 36.773,597.149 36.5,589.5C 35.7229,579.508 35.0562,569.508 34.5,559.5C 35.2498,546.628 36.2498,533.628 37.5,520.5C 43.3152,491.884 53.3152,464.884 67.5,439.5C 71.2141,435.117 74.5475,430.45 77.5,425.5C 83.4935,418.506 89.4935,411.506 95.5,404.5C 95.8333,403.5 96.5,402.833 97.5,402.5C 99.5,401.167 101.167,399.5 102.5,397.5C 102.5,396.833 102.833,396.5 103.5,396.5C 107.833,392.833 111.833,388.833 115.5,384.5C 115.833,383.5 116.5,382.833 117.5,382.5C 120.427,381.243 122.761,379.243 124.5,376.5C 128.917,371.747 133.917,367.747 139.5,364.5C 142.427,363.243 144.761,361.243 146.5,358.5C 148.027,358.573 149.027,357.906 149.5,356.5C 151.749,355.92 153.415,354.587 154.5,352.5C 156.027,352.573 157.027,351.906 157.5,350.5C 159.853,349.66 161.853,348.326 163.5,346.5C 163.842,345.662 164.508,345.328 165.5,345.5C 167.434,344.89 169.101,343.89 170.5,342.5C 176.999,339.418 183.332,336.085 189.5,332.5C 191.553,332.598 193.22,331.931 194.5,330.5C 200.886,329.318 207.219,327.818 213.5,326C 214.056,325.617 214.389,325.117 214.5,324.5C 217.167,323.833 219.833,323.167 222.5,322.5C 228.534,321.993 234.534,321.159 240.5,320C 239.663,318.989 239.33,317.822 239.5,316.5C 239.629,314.784 239.962,313.117 240.5,311.5 Z"/></g>
<g><path style="opacity:0.49" fill="#98a7a7" d="M 239.5,316.5 C 239.33,317.822 239.663,318.989 240.5,320C 234.534,321.159 228.534,321.993 222.5,322.5C 227.038,321.366 231.705,320.199 236.5,319C 237.691,318.302 238.691,317.469 239.5,316.5 Z"/></g>
<g><path style="opacity:0.996" fill="#849596" d="M 372.5,321.5 C 377.251,322.71 381.584,324.71 385.5,327.5C 380.496,326.8 376.163,324.8 372.5,321.5 Z"/></g>
<g><path style="opacity:0.753" fill="#a3b0b0" d="M 214.5,324.5 C 214.389,325.117 214.056,325.617 213.5,326C 207.219,327.818 200.886,329.318 194.5,330.5C 200.785,327.59 207.452,325.59 214.5,324.5 Z"/></g>
<g><path style="opacity:0.125" fill="#dfe3e3" d="M 194.5,330.5 C 193.22,331.931 191.553,332.598 189.5,332.5C 190.78,331.069 192.447,330.402 194.5,330.5 Z"/></g>
<g><path style="opacity:0.133" fill="#d8dede" d="M 189.5,332.5 C 183.332,336.085 176.999,339.418 170.5,342.5C 176.078,337.876 182.411,334.543 189.5,332.5 Z"/></g>
<g><path style="opacity:0.718" fill="#859697" d="M 395.5,332.5 C 401.514,334.835 406.848,338.169 411.5,342.5C 405.486,340.165 400.152,336.831 395.5,332.5 Z"/></g>
<g><path style="opacity:0.239" fill="#ced4d5" d="M 170.5,342.5 C 169.101,343.89 167.434,344.89 165.5,345.5C 166.401,343.273 168.067,342.273 170.5,342.5 Z"/></g>
<g><path style="opacity:1" fill="#532727" d="M 334.5,346.5 C 335.475,356.751 335.808,367.085 335.5,377.5C 335.5,378.5 335.5,379.5 335.5,380.5C 330.803,392.229 324.803,403.229 317.5,413.5C 316.061,415.36 314.395,417.027 312.5,418.5C 311.5,418.833 310.833,419.5 310.5,420.5C 309.922,423.28 309.255,425.947 308.5,428.5C 309.424,424.116 308.091,420.782 304.5,418.5C 307.136,412.565 310.302,406.898 314,401.5C 314.667,397.833 314.667,394.167 314,390.5C 311.111,384.066 308.278,377.733 305.5,371.5C 308.972,366.413 310.638,360.746 310.5,354.5C 311.674,353.486 312.34,352.153 312.5,350.5C 313.906,350.027 314.573,349.027 314.5,347.5C 314.328,346.508 314.662,345.842 315.5,345.5C 316.577,344.982 317.744,344.648 319,344.5C 324.147,345.373 329.314,346.039 334.5,346.5 Z"/></g>
<g><path style="opacity:0.125" fill="#cdd4d4" d="M 163.5,346.5 C 161.853,348.326 159.853,349.66 157.5,350.5C 158.802,348.178 160.802,346.845 163.5,346.5 Z"/></g>
<g><path style="opacity:0.18" fill="#d2c5c5" d="M 314.5,347.5 C 314.573,349.027 313.906,350.027 312.5,350.5C 312.427,348.973 313.094,347.973 314.5,347.5 Z"/></g>
<g><path style="opacity:0.031" fill="#e7e4e4" d="M 310.5,344.5 C 310.833,344.5 311.167,344.5 311.5,344.5C 311.205,346.735 311.539,348.735 312.5,350.5C 312.34,352.153 311.674,353.486 310.5,354.5C 310.5,352.833 310.5,351.167 310.5,349.5C 310.5,347.833 310.5,346.167 310.5,344.5 Z"/></g>
<g><path style="opacity:0.388" fill="#c9d1d1" d="M 157.5,350.5 C 157.027,351.906 156.027,352.573 154.5,352.5C 154.973,351.094 155.973,350.427 157.5,350.5 Z"/></g>
<g><path style="opacity:0.267" fill="#c4cccc" d="M 154.5,352.5 C 153.415,354.587 151.749,355.92 149.5,356.5C 150.585,354.413 152.251,353.08 154.5,352.5 Z"/></g>
<g><path style="opacity:0.35" fill="#c7bbbc" d="M 334.5,346.5 C 336.099,346.232 337.432,346.566 338.5,347.5C 336.842,357.292 335.842,367.292 335.5,377.5C 335.808,367.085 335.475,356.751 334.5,346.5 Z"/></g>
<g><path style="opacity:0.447" fill="#c0c9c9" d="M 149.5,356.5 C 149.027,357.906 148.027,358.573 146.5,358.5C 146.973,357.094 147.973,356.427 149.5,356.5 Z"/></g>
<g><path style="opacity:0.067" fill="#dcdcdc" d="M 269.5,360.5 C 270.674,361.514 271.34,362.847 271.5,364.5C 269.896,363.713 269.229,362.38 269.5,360.5 Z"/></g>
<g><path style="opacity:0.937" fill="#8b9c9c" d="M 146.5,358.5 C 144.761,361.243 142.427,363.243 139.5,364.5C 141.239,361.757 143.573,359.757 146.5,358.5 Z"/></g>
<g><path style="opacity:0.047" fill="#e8ebeb" d="M 433.5,362.5 C 435.833,362.833 437.167,364.167 437.5,366.5C 435.833,365.5 434.5,364.167 433.5,362.5 Z"/></g>
<g><path style="opacity:1" fill="#3a1710" d="M 211.5,364.5 C 212.338,364.842 212.672,365.508 212.5,366.5C 213.786,369.117 215.453,371.45 217.5,373.5C 218.11,375.434 219.11,377.101 220.5,378.5C 222.989,385.472 225.989,392.139 229.5,398.5C 230.22,404.138 230.553,409.804 230.5,415.5C 227.834,415.933 225.168,416.433 222.5,417C 220.473,418.879 218.14,420.046 215.5,420.5C 212.896,418.4 210.396,416.067 208,413.5C 204.303,404.569 201.136,395.569 198.5,386.5C 197.057,382.385 196.057,378.052 195.5,373.5C 195.672,372.508 195.338,371.842 194.5,371.5C 199.358,368.148 204.525,365.148 210,362.5C 210.278,363.416 210.778,364.082 211.5,364.5 Z"/></g>
<g><path style="opacity:0.671" fill="#a4b1b1" d="M 437.5,366.5 C 439.587,367.585 440.92,369.251 441.5,371.5C 439.413,370.415 438.08,368.749 437.5,366.5 Z"/></g>
<g><path style="opacity:0.027" fill="#d2c7c6" d="M 272.5,366.5 C 273.401,367.29 274.068,368.29 274.5,369.5C 273.504,369.414 272.671,369.748 272,370.5C 271.994,373.264 270.828,375.264 268.5,376.5C 269.71,373.128 271.043,369.795 272.5,366.5 Z"/></g>
<g><path style="opacity:0.082" fill="#ddd6d4" d="M 212.5,366.5 C 215.364,368.023 217.031,370.357 217.5,373.5C 215.453,371.45 213.786,369.117 212.5,366.5 Z"/></g>
<g><path style="opacity:1" fill="#440e0a" d="M 274.5,369.5 C 284.643,370.78 294.976,371.447 305.5,371.5C 308.278,377.733 311.111,384.066 314,390.5C 314.667,394.167 314.667,397.833 314,401.5C 310.302,406.898 307.136,412.565 304.5,418.5C 302.929,420.635 301.596,422.968 300.5,425.5C 289.642,428.421 278.976,427.754 268.5,423.5C 267.537,420.256 266.204,417.256 264.5,414.5C 263.566,413.432 263.232,412.099 263.5,410.5C 261.066,404.071 260.066,397.405 260.5,390.5C 264.093,386.414 266.76,381.747 268.5,376.5C 270.828,375.264 271.994,373.264 272,370.5C 272.671,369.748 273.504,369.414 274.5,369.5 Z"/></g>
<g><path style="opacity:0.055" fill="#e6e2e2" d="M 192.5,372.5 C 192.842,371.662 193.508,371.328 194.5,371.5C 195.338,371.842 195.672,372.508 195.5,373.5C 194.609,372.89 193.609,372.557 192.5,372.5 Z"/></g>
<g><path style="opacity:0.114" fill="#e8e4e3" d="M 217.5,373.5 C 219.727,374.401 220.727,376.067 220.5,378.5C 219.11,377.101 218.11,375.434 217.5,373.5 Z"/></g>
<g><path style="opacity:0.933" fill="#889898" d="M 400.5,378.5 C 402.749,379.08 404.415,380.413 405.5,382.5C 403.251,381.92 401.585,380.587 400.5,378.5 Z"/></g>
<g><path style="opacity:0.824" fill="#859697" d="M 124.5,376.5 C 122.761,379.243 120.427,381.243 117.5,382.5C 119.239,379.757 121.573,377.757 124.5,376.5 Z"/></g>
<g><path style="opacity:0.396" fill="#b9c3c3" d="M 447.5,378.5 C 448.906,378.973 449.573,379.973 449.5,381.5C 448.094,381.027 447.427,380.027 447.5,378.5 Z"/></g>
<g><path style="opacity:0.024" fill="#e5dddc" d="M 268.5,376.5 C 266.76,381.747 264.093,386.414 260.5,390.5C 262.057,386.422 263.89,382.422 266,378.5C 266.708,377.619 267.542,376.953 268.5,376.5 Z"/></g>
<g><path style="opacity:0.608" fill="#acb8b9" d="M 115.5,384.5 C 111.833,388.833 107.833,392.833 103.5,396.5C 106.5,391.5 110.5,387.5 115.5,384.5 Z"/></g>
<g><path style="opacity:0.051" fill="#e9e5e4" d="M 220.5,378.5 C 224.557,384.62 227.557,391.287 229.5,398.5C 225.989,392.139 222.989,385.472 220.5,378.5 Z"/></g>
<g><path style="opacity:0.404" fill="#aaadac" d="M 413.5,390.5 C 416.19,392.193 418.19,394.527 419.5,397.5C 418.167,397.5 416.833,397.5 415.5,397.5C 415.918,396.778 416.584,396.278 417.5,396C 415.561,394.568 414.228,392.735 413.5,390.5 Z"/></g>
<g><path style="opacity:0.416" fill="#bbc4c5" d="M 455.5,390.5 C 457.262,391.262 458.262,392.596 458.5,394.5C 456.738,393.738 455.738,392.404 455.5,390.5 Z"/></g>
<g><path style="opacity:1" fill="#704037" d="M 415.5,397.5 C 416.833,397.5 418.167,397.5 419.5,397.5C 422.888,400.597 425.555,404.264 427.5,408.5C 427.167,409.167 426.833,409.833 426.5,410.5C 420.726,418.775 414.06,426.275 406.5,433C 395.836,440.334 384.836,447.168 373.5,453.5C 372.824,454.602 372.158,455.602 371.5,456.5C 373.486,446.148 369.152,441.482 358.5,442.5C 359.952,441.698 361.618,441.198 363.5,441C 375.611,424.22 390.278,410.22 407.5,399C 410.168,398.433 412.834,397.933 415.5,397.5 Z"/></g>
<g><path style="opacity:0.298" fill="#b4bebf" d="M 458.5,395.5 C 459.906,395.973 460.573,396.973 460.5,398.5C 459.094,398.027 458.427,397.027 458.5,395.5 Z"/></g>
<g><path style="opacity:0.216" fill="#dfe4e4" d="M 102.5,397.5 C 101.167,399.5 99.5,401.167 97.5,402.5C 98.1667,399.833 99.8333,398.167 102.5,397.5 Z"/></g>
<g><path style="opacity:0.043" fill="#e3dbdb" d="M 335.5,380.5 C 332.882,393.363 326.882,404.363 317.5,413.5C 324.803,403.229 330.803,392.229 335.5,380.5 Z"/></g>
<g><path style="opacity:0.004" fill="#cfc1bf" d="M 260.5,390.5 C 260.066,397.405 261.066,404.071 263.5,410.5C 259.559,404.257 258.559,397.59 260.5,390.5 Z"/></g>
<g><path style="opacity:0.286" fill="#bec7c7" d="M 462.5,402.5 C 463.906,402.973 464.573,403.973 464.5,405.5C 463.094,405.027 462.427,404.027 462.5,402.5 Z"/></g>
<g><path style="opacity:0.243" fill="#bdc7c7" d="M 464.5,406.5 C 465.906,406.973 466.573,407.973 466.5,409.5C 465.094,409.027 464.427,408.027 464.5,406.5 Z"/></g>
<g><path style="opacity:0.643" fill="#9c8a86" d="M 229.5,398.5 C 230.29,399.609 230.79,400.942 231,402.5C 231.499,406.821 231.666,411.154 231.5,415.5C 231.167,415.5 230.833,415.5 230.5,415.5C 230.553,409.804 230.22,404.138 229.5,398.5 Z"/></g>
<g><path style="opacity:0.992" fill="#829292" d="M 427.5,408.5 C 430.956,410.403 432.622,413.403 432.5,417.5C 430.766,415.91 429.6,413.91 429,411.5C 428.329,410.748 427.496,410.414 426.5,410.5C 426.833,409.833 427.167,409.167 427.5,408.5 Z"/></g>
<g><path style="opacity:0.176" fill="#d9d1d0" d="M 198.5,386.5 C 201.136,395.569 204.303,404.569 208,413.5C 210.396,416.067 212.896,418.4 215.5,420.5C 215.5,420.833 215.5,421.167 215.5,421.5C 211.914,419.42 208.747,416.754 206,413.5C 202.171,404.848 199.671,395.848 198.5,386.5 Z"/></g>
<g><path style="opacity:0.055" fill="#dde2e2" d="M 95.5,404.5 C 89.4935,411.506 83.4935,418.506 77.5,425.5C 82.0086,417.317 88.0086,410.317 95.5,404.5 Z"/></g>
<g><path style="opacity:1" fill="#2e201d" d="M 230.5,415.5 C 230.833,415.5 231.167,415.5 231.5,415.5C 239.305,420.017 241.972,426.683 239.5,435.5C 234.61,438.585 229.276,440.918 223.5,442.5C 216.026,437.512 213.359,430.512 215.5,421.5C 215.5,421.167 215.5,420.833 215.5,420.5C 218.14,420.046 220.473,418.879 222.5,417C 225.168,416.433 227.834,415.933 230.5,415.5 Z"/></g>
<g><path style="opacity:0.004" fill="#d7cbca" d="M 264.5,414.5 C 266.204,417.256 267.537,420.256 268.5,423.5C 268.5,423.833 268.5,424.167 268.5,424.5C 265.819,421.808 264.486,418.475 264.5,414.5 Z"/></g>
<g><path style="opacity:1" fill="#291a17" d="M 304.5,418.5 C 308.091,420.782 309.424,424.116 308.5,428.5C 308.5,428.833 308.5,429.167 308.5,429.5C 306.5,430.833 304.833,432.5 303.5,434.5C 302.833,434.833 302.167,435.167 301.5,435.5C 300.521,432.375 300.187,429.042 300.5,425.5C 301.596,422.968 302.929,420.635 304.5,418.5 Z"/></g>
<g><path style="opacity:0.024" fill="#e1d9d9" d="M 312.5,418.5 C 312.5,419.833 311.833,420.5 310.5,420.5C 310.833,419.5 311.5,418.833 312.5,418.5 Z"/></g>
<g><path style="opacity:0.118" fill="#c2cbcb" d="M 133.5,420.5 C 132.92,422.749 131.587,424.415 129.5,425.5C 130.08,423.251 131.413,421.585 133.5,420.5 Z"/></g>
<g><path style="opacity:1" fill="#523122" d="M 268.5,423.5 C 278.976,427.754 289.642,428.421 300.5,425.5C 300.187,429.042 300.521,432.375 301.5,435.5C 298.687,454.676 297.02,474.009 296.5,493.5C 295.532,495.607 295.198,497.941 295.5,500.5C 295.16,505.37 294.493,510.203 293.5,515C 293.608,516.681 294.275,517.848 295.5,518.5C 292.66,520.715 291.993,523.382 293.5,526.5C 291.336,530.442 290.336,534.775 290.5,539.5C 297.064,542.782 303.731,546.115 310.5,549.5C 306.85,549.642 303.35,548.975 300,547.5C 296.954,544.894 293.454,543.227 289.5,542.5C 289.5,544.167 289.5,545.833 289.5,547.5C 288.527,547.013 287.527,546.513 286.5,546C 279.174,545.5 271.841,545.334 264.5,545.5C 265.069,525.063 264.403,504.729 262.5,484.5C 263.222,484.918 263.722,485.584 264,486.5C 266.162,465.874 267.662,445.208 268.5,424.5C 268.5,424.167 268.5,423.833 268.5,423.5 Z"/></g>
<g><path style="opacity:0.047" fill="#e8ebeb" d="M 129.5,425.5 C 128.277,428.274 126.777,430.941 125,433.5C 124.617,432.944 124.117,432.611 123.5,432.5C 125.273,429.94 127.273,427.607 129.5,425.5 Z"/></g>
<g><path style="opacity:0.192" fill="#d8dede" d="M 77.5,425.5 C 74.5475,430.45 71.2141,435.117 67.5,439.5C 69.6766,433.993 73.0099,429.326 77.5,425.5 Z"/></g>
<g><path style="opacity:0.016" fill="#e4e2e2" d="M 308.5,429.5 C 307.833,432.167 306.167,433.833 303.5,434.5C 304.833,432.5 306.5,430.833 308.5,429.5 Z"/></g>
<g><path style="opacity:1" fill="#401910" d="M 121.5,437.5 C 124.004,438.584 126.337,439.917 128.5,441.5C 134.249,443.873 139.916,446.54 145.5,449.5C 146.167,449.5 146.5,449.833 146.5,450.5C 146.973,451.906 147.973,452.573 149.5,452.5C 150.585,454.587 152.251,455.92 154.5,456.5C 157.452,460.119 160.785,463.452 164.5,466.5C 164.662,468.527 164.495,470.527 164,472.5C 160.594,474.979 159.094,478.312 159.5,482.5C 154.797,482.563 150.13,482.229 145.5,481.5C 145.167,481.5 144.833,481.5 144.5,481.5C 136.284,476.294 128.618,470.294 121.5,463.5C 118.152,460.149 115.152,456.482 112.5,452.5C 111.972,451.153 111.805,449.819 112,448.5C 114.248,445.672 116.248,442.672 118,439.5C 118.816,438.177 119.983,437.511 121.5,437.5 Z"/></g>
<g><path style="opacity:1" fill="#402420" d="M 239.5,435.5 C 239.831,437.322 240.498,438.989 241.5,440.5C 242.669,443.511 244.336,446.178 246.5,448.5C 248.009,451.678 249.342,455.011 250.5,458.5C 250.427,460.027 251.094,461.027 252.5,461.5C 254.384,464.603 255.718,467.937 256.5,471.5C 255.542,471.047 254.708,470.381 254,469.5C 252.357,474.628 251.523,479.961 251.5,485.5C 248.422,484.798 245.422,483.798 242.5,482.5C 240.484,482.516 239.484,483.516 239.5,485.5C 237.655,482.667 235.989,479.667 234.5,476.5C 234.573,474.973 233.906,473.973 232.5,473.5C 232.25,471.326 231.25,469.659 229.5,468.5C 227.837,466.507 226.67,464.174 226,461.5C 225.039,455.135 224.205,448.801 223.5,442.5C 229.276,440.918 234.61,438.585 239.5,435.5 Z"/></g>
<g><path style="opacity:1" fill="#342920" d="M 358.5,442.5 C 369.152,441.482 373.486,446.148 371.5,456.5C 371.586,457.496 371.252,458.329 370.5,459C 366.62,461.863 362.287,463.03 357.5,462.5C 355.273,460.393 353.273,458.06 351.5,455.5C 351.325,453.379 351.659,451.379 352.5,449.5C 354.471,447.192 356.471,444.858 358.5,442.5 Z"/></g>
<g><path style="opacity:0.082" fill="#e2dcda" d="M 128.5,441.5 C 135.099,442.301 140.765,444.967 145.5,449.5C 139.916,446.54 134.249,443.873 128.5,441.5 Z"/></g>
<g><path style="opacity:0.118" fill="#dbd6d5" d="M 241.5,440.5 C 244.164,442.484 245.831,445.151 246.5,448.5C 244.336,446.178 242.669,443.511 241.5,440.5 Z"/></g>
<g><path style="opacity:0.031" fill="#d3d1cf" d="M 358.5,442.5 C 356.471,444.858 354.471,447.192 352.5,449.5C 353.054,445.945 355.054,443.612 358.5,442.5 Z"/></g>
<g><path style="opacity:0.106" fill="#d8cfcd" d="M 146.5,450.5 C 148.027,450.427 149.027,451.094 149.5,452.5C 147.973,452.573 146.973,451.906 146.5,450.5 Z"/></g>
<g><path style="opacity:0.004" fill="#dad3d1" d="M 149.5,452.5 C 151.749,453.08 153.415,454.413 154.5,456.5C 152.251,455.92 150.585,454.587 149.5,452.5 Z"/></g>
<g><path style="opacity:0.914" fill="#8a9a9b" d="M 480.5,448.5 C 481.738,450.214 482.405,452.214 482.5,454.5C 480.72,453.01 480.054,451.01 480.5,448.5 Z"/></g>
<g><path style="opacity:1" fill="#765741" d="M 351.5,455.5 C 353.273,458.06 355.273,460.393 357.5,462.5C 357.453,465.928 356.287,468.928 354,471.5C 347.108,478.35 339.608,484.35 331.5,489.5C 331.167,489.5 330.833,489.5 330.5,489.5C 324.295,489.931 318.129,491.598 312,494.5C 311.5,494.333 311,494.167 310.5,494C 312.365,491.412 313.198,488.578 313,485.5C 312.329,486.252 311.496,486.586 310.5,486.5C 321.561,472.779 335.227,462.446 351.5,455.5 Z"/></g>
<g><path style="opacity:0.008" fill="#d5ccc9" d="M 154.5,456.5 C 158.855,458.855 162.188,462.188 164.5,466.5C 160.785,463.452 157.452,460.119 154.5,456.5 Z"/></g>
<g><path style="opacity:0.224" fill="#c2bab8" d="M 250.5,458.5 C 251.906,458.973 252.573,459.973 252.5,461.5C 251.094,461.027 250.427,460.027 250.5,458.5 Z"/></g>
<g><path style="opacity:0.718" fill="#aab6b6" d="M 483.5,458.5 C 485.102,462.239 486.102,466.239 486.5,470.5C 484.584,466.837 483.584,462.837 483.5,458.5 Z"/></g>
<g><path style="opacity:0.188" fill="#d2cbca" d="M 229.5,468.5 C 231.25,469.659 232.25,471.326 232.5,473.5C 230.75,472.341 229.75,470.674 229.5,468.5 Z"/></g>
<g><path style="opacity:0.89" fill="#6b8080" d="M 450.5,467.5 C 452.755,471.766 453.755,476.432 453.5,481.5C 452.216,477.015 451.216,472.349 450.5,467.5 Z"/></g>
<g><path style="opacity:1" fill="#3a312c" d="M 164.5,466.5 C 165.452,467.452 166.452,468.452 167.5,469.5C 170.848,470.287 174.182,471.121 177.5,472C 179.833,475 182.167,478 184.5,481C 186.708,481.191 188.708,481.691 190.5,482.5C 188.208,482.244 186.041,482.577 184,483.5C 182.034,486.601 180.2,489.768 178.5,493C 179.233,494.766 179.567,496.599 179.5,498.5C 178.341,497.544 177.174,496.544 176,495.5C 170.846,497.007 166.679,495.674 163.5,491.5C 162.136,489.809 160.803,488.142 159.5,486.5C 159.5,485.167 159.5,483.833 159.5,482.5C 159.094,478.312 160.594,474.979 164,472.5C 164.495,470.527 164.662,468.527 164.5,466.5 Z"/></g>
<g><path style="opacity:1" fill="#2d1211" d="M 256.5,471.5 C 257.11,472.391 257.443,473.391 257.5,474.5C 257.66,476.153 258.326,477.486 259.5,478.5C 259.66,480.153 260.326,481.486 261.5,482.5C 262.338,482.842 262.672,483.508 262.5,484.5C 264.403,504.729 265.069,525.063 264.5,545.5C 255.43,547.568 250.764,553.234 250.5,562.5C 244.167,568.167 238.167,574.167 232.5,580.5C 231.073,578.852 230.24,576.852 230,574.5C 228.999,567.33 229.499,560.33 231.5,553.5C 232.906,553.027 233.573,552.027 233.5,550.5C 235.647,548.263 237.98,546.263 240.5,544.5C 243.453,543.213 245.786,541.213 247.5,538.5C 249.67,537.162 251.336,535.328 252.5,533C 246.6,531.239 240.6,529.905 234.5,529C 233.748,528.329 233.414,527.496 233.5,526.5C 235.337,526.361 235.67,525.694 234.5,524.5C 232.929,523.691 231.262,523.357 229.5,523.5C 223.724,521.918 218.39,519.585 213.5,516.5C 213.196,515.85 212.863,515.183 212.5,514.5C 218.225,513.422 223.892,512.088 229.5,510.5C 233.118,511.346 236.785,511.68 240.5,511.5C 245.312,512.77 249.978,514.437 254.5,516.5C 254.897,517.525 255.563,517.692 256.5,517C 255.934,516.005 255.267,515.172 254.5,514.5C 249.264,505.029 244.264,495.363 239.5,485.5C 239.484,483.516 240.484,482.516 242.5,482.5C 245.422,483.798 248.422,484.798 251.5,485.5C 251.523,479.961 252.357,474.628 254,469.5C 254.708,470.381 255.542,471.047 256.5,471.5 Z"/></g>
<g><path style="opacity:0.035" fill="#e4e0e0" d="M 232.5,473.5 C 233.906,473.973 234.573,474.973 234.5,476.5C 233.094,476.027 232.427,475.027 232.5,473.5 Z"/></g>
<g><path style="opacity:0.078" fill="#e4dfdd" d="M 121.5,463.5 C 128.618,470.294 136.284,476.294 144.5,481.5C 134.77,478.135 127.103,472.135 121.5,463.5 Z"/></g>
<g><path style="opacity:0.161" fill="#cbc3c2" d="M 257.5,474.5 C 259.104,475.287 259.771,476.62 259.5,478.5C 258.326,477.486 257.66,476.153 257.5,474.5 Z"/></g>
<g><path style="opacity:0.075" fill="#cec8c7" d="M 259.5,478.5 C 261.104,479.287 261.771,480.62 261.5,482.5C 260.326,481.486 259.66,480.153 259.5,478.5 Z"/></g>
<g><path style="opacity:0.745" fill="#8b726c" d="M 145.5,481.5 C 150.13,482.229 154.797,482.563 159.5,482.5C 159.5,483.833 159.5,485.167 159.5,486.5C 158.596,485.791 158.263,484.791 158.5,483.5C 155.15,483.665 151.817,483.498 148.5,483C 147.263,482.768 146.263,482.268 145.5,481.5 Z"/></g>
<g><path style="opacity:1" fill="#3f2420" d="M 190.5,482.5 C 192.786,482.595 194.786,483.262 196.5,484.5C 198.649,485.736 200.982,486.736 203.5,487.5C 206.157,487.935 208.491,488.935 210.5,490.5C 211.911,492.914 213.911,494.581 216.5,495.5C 224.272,501.289 232.272,506.623 240.5,511.5C 236.785,511.68 233.118,511.346 229.5,510.5C 223.892,512.088 218.225,513.422 212.5,514.5C 212.863,515.183 213.196,515.85 213.5,516.5C 210.341,515.669 207.341,514.669 204.5,513.5C 203.01,511.72 201.01,511.054 198.5,511.5C 196.447,511.598 194.78,510.931 193.5,509.5C 190.461,506.46 187.127,503.794 183.5,501.5C 182.508,501.672 181.842,501.338 181.5,500.5C 181.167,499.5 180.5,498.833 179.5,498.5C 179.567,496.599 179.233,494.766 178.5,493C 180.2,489.768 182.034,486.601 184,483.5C 186.041,482.577 188.208,482.244 190.5,482.5 Z"/></g>
<g><path style="opacity:0.071" fill="#e7e4e3" d="M 196.5,484.5 C 199.491,484.166 201.824,485.166 203.5,487.5C 200.982,486.736 198.649,485.736 196.5,484.5 Z"/></g>
<g><path style="opacity:0.051" fill="#e2e1e1" d="M 159.5,486.5 C 160.803,488.142 162.136,489.809 163.5,491.5C 160.703,491.033 159.369,489.367 159.5,486.5 Z"/></g>
<g><path style="opacity:1" fill="#4c221c" d="M 330.5,489.5 C 328.833,490.5 327.5,491.833 326.5,493.5C 315.902,501.424 305.569,509.757 295.5,518.5C 294.275,517.848 293.608,516.681 293.5,515C 294.493,510.203 295.16,505.37 295.5,500.5C 296.5,500.167 297.167,499.5 297.5,498.5C 301.602,494.277 305.935,490.277 310.5,486.5C 311.496,486.586 312.329,486.252 313,485.5C 313.198,488.578 312.365,491.412 310.5,494C 311,494.167 311.5,494.333 312,494.5C 318.129,491.598 324.295,489.931 330.5,489.5 Z"/></g>
<g><path style="opacity:0.035" fill="#d2cbca" d="M 210.5,490.5 C 213.089,491.419 215.089,493.086 216.5,495.5C 213.911,494.581 211.911,492.914 210.5,490.5 Z"/></g>
<g><path style="opacity:0.999" fill="#6a3825" d="M 454.5,492.5 C 454.954,499.159 455.287,505.826 455.5,512.5C 454.833,512.5 454.5,512.833 454.5,513.5C 447.092,518.622 438.759,521.789 429.5,523C 419.503,523.167 409.503,523.001 399.5,522.5C 398.432,521.566 397.099,521.232 395.5,521.5C 399.028,509.501 394.695,503.834 382.5,504.5C 385.565,503.182 388.731,503.182 392,504.5C 396.393,501.22 401.226,498.887 406.5,497.5C 408.967,497.245 410.967,496.245 412.5,494.5C 418.632,492.021 425.132,490.687 432,490.5C 439.511,491.14 447.011,491.806 454.5,492.5 Z"/></g>
<g><path style="opacity:0.004" fill="#f7f5f4" d="M 330.5,489.5 C 330.833,489.5 331.167,489.5 331.5,489.5C 330.415,491.587 328.749,492.92 326.5,493.5C 327.5,491.833 328.833,490.5 330.5,489.5 Z"/></g>
<g><path style="opacity:0.455" fill="#b9aba6" d="M 296.5,493.5 C 296.216,495.415 296.549,497.081 297.5,498.5C 297.167,499.5 296.5,500.167 295.5,500.5C 295.198,497.941 295.532,495.607 296.5,493.5 Z"/></g>
<g><path style="opacity:0.824" fill="#a7877c" d="M 412.5,494.5 C 410.967,496.245 408.967,497.245 406.5,497.5C 408.033,495.755 410.033,494.755 412.5,494.5 Z"/></g>
<g><path style="opacity:0.012" fill="#e7e3e3" d="M 179.5,498.5 C 180.5,498.833 181.167,499.5 181.5,500.5C 180.167,500.5 179.5,499.833 179.5,498.5 Z"/></g>
<g><path style="opacity:0.855" fill="#b4a8a6" d="M 183.5,501.5 C 187.127,503.794 190.461,506.46 193.5,509.5C 189.327,508.005 185.994,505.338 183.5,501.5 Z"/></g>
<g><path style="opacity:0.596" fill="#91a0a1" d="M 89.5,499.5 C 88.6128,504.722 87.2795,509.722 85.5,514.5C 85.762,509.112 87.0954,504.112 89.5,499.5 Z"/></g>
<g><path style="opacity:1" fill="#3c2b29" d="M 382.5,504.5 C 394.695,503.834 399.028,509.501 395.5,521.5C 395.167,522.167 394.833,522.833 394.5,523.5C 388.461,527.136 382.128,527.469 375.5,524.5C 378.235,519.357 377.902,514.357 374.5,509.5C 375.167,508.5 375.833,507.5 376.5,506.5C 378.102,504.926 380.102,504.259 382.5,504.5 Z"/></g>
<g><path style="opacity:0.141" fill="#eae8e8" d="M 376.5,506.5 C 375.833,507.5 375.167,508.5 374.5,509.5C 374.167,509.5 373.833,509.5 373.5,509.5C 373.5,507.5 374.5,506.5 376.5,506.5 Z"/></g>
<g><path style="opacity:1" fill="#64352f" d="M 373.5,509.5 C 373.833,509.5 374.167,509.5 374.5,509.5C 377.902,514.357 378.235,519.357 375.5,524.5C 373.634,527.27 370.968,528.77 367.5,529C 360.809,529.335 354.143,529.835 347.5,530.5C 347.918,529.778 348.584,529.278 349.5,529C 341.95,528.224 334.617,526.557 327.5,524C 329.647,521.763 331.98,519.763 334.5,518C 333.552,517.517 332.552,517.351 331.5,517.5C 344.723,511.405 358.723,508.738 373.5,509.5 Z"/></g>
<g><path style="opacity:0.918" fill="#a29391" d="M 198.5,511.5 C 201.01,511.054 203.01,511.72 204.5,513.5C 202.214,513.405 200.214,512.738 198.5,511.5 Z"/></g>
<g><path style="opacity:0.047" fill="#d9d4d4" d="M 254.5,514.5 C 255.267,515.172 255.934,516.005 256.5,517C 255.563,517.692 254.897,517.525 254.5,516.5C 254.5,515.833 254.5,515.167 254.5,514.5 Z"/></g>
<g><path style="opacity:1" fill="#462825" d="M 331.5,517.5 C 332.552,517.351 333.552,517.517 334.5,518C 331.98,519.763 329.647,521.763 327.5,524C 334.617,526.557 341.95,528.224 349.5,529C 348.584,529.278 347.918,529.778 347.5,530.5C 328.676,534.396 309.676,537.396 290.5,539.5C 290.336,534.775 291.336,530.442 293.5,526.5C 305.776,522.266 318.442,519.266 331.5,517.5 Z"/></g>
<g><path style="opacity:0.663" fill="#758788" d="M 454.5,513.5 C 454.5,512.833 454.833,512.5 455.5,512.5C 456.833,517.833 456.833,523.167 455.5,528.5C 455.821,523.305 455.487,518.305 454.5,513.5 Z"/></g>
<g><path style="opacity:0.047" fill="#e9e7e6" d="M 395.5,521.5 C 397.099,521.232 398.432,521.566 399.5,522.5C 397.784,522.629 396.117,522.962 394.5,523.5C 394.833,522.833 395.167,522.167 395.5,521.5 Z"/></g>
<g><path style="opacity:0.608" fill="#857472" d="M 229.5,523.5 C 231.262,523.357 232.929,523.691 234.5,524.5C 235.67,525.694 235.337,526.361 233.5,526.5C 232.41,525.143 231.076,524.143 229.5,523.5 Z"/></g>
<g><path style="opacity:1" fill="#481d18" d="M 233.5,526.5 C 233.414,527.496 233.748,528.329 234.5,529C 240.6,529.905 246.6,531.239 252.5,533C 251.336,535.328 249.67,537.162 247.5,538.5C 246.221,537.285 245.221,537.618 244.5,539.5C 243.833,539.5 243.5,539.833 243.5,540.5C 239.12,541.293 234.786,542.293 230.5,543.5C 226.005,543.093 222.338,544.426 219.5,547.5C 215.024,549.436 210.357,550.769 205.5,551.5C 204.448,551.649 203.448,551.483 202.5,551C 208.848,544.988 215.515,539.321 222.5,534C 219.949,533.998 217.949,533.164 216.5,531.5C 220.348,529.996 224.348,528.996 228.5,528.5C 228.413,525.402 228.913,525.068 230,527.5C 231.011,526.663 232.178,526.33 233.5,526.5 Z"/></g>
<g><path style="opacity:1" fill="#775842" d="M 216.5,531.5 C 217.949,533.164 219.949,533.998 222.5,534C 215.515,539.321 208.848,544.988 202.5,551C 203.448,551.483 204.448,551.649 205.5,551.5C 192.324,556.906 178.658,560.906 164.5,563.5C 161.825,562.522 160.325,560.522 160,557.5C 159.421,555.351 158.921,553.185 158.5,551C 158.755,549.674 159.422,548.674 160.5,548C 158.22,547.788 156.22,546.955 154.5,545.5C 151.942,546.697 149.942,546.03 148.5,543.5C 152.649,543.871 156.649,544.871 160.5,546.5C 165.971,543.843 171.638,541.676 177.5,540C 190.472,536.95 203.472,534.117 216.5,531.5 Z"/></g>
<g><path style="opacity:0.651" fill="#b3a8a7" d="M 247.5,538.5 C 245.786,541.213 243.453,543.213 240.5,544.5C 241.5,543.167 242.5,541.833 243.5,540.5C 244.167,540.5 244.5,540.167 244.5,539.5C 245.221,537.618 246.221,537.285 247.5,538.5 Z"/></g>
<g><path style="opacity:0.973" fill="#7e5c57" d="M 230.5,543.5 C 227.199,545.584 223.532,546.918 219.5,547.5C 222.338,544.426 226.005,543.093 230.5,543.5 Z"/></g>
<g><path style="opacity:1" fill="#5c4e3f" d="M 148.5,543.5 C 149.942,546.03 151.942,546.697 154.5,545.5C 156.22,546.955 158.22,547.788 160.5,548C 159.422,548.674 158.755,549.674 158.5,551C 158.921,553.185 159.421,555.351 160,557.5C 160.325,560.522 161.825,562.522 164.5,563.5C 158.772,574.411 150.105,577.411 138.5,572.5C 138.918,571.778 139.584,571.278 140.5,571C 138.396,568.958 137.229,566.458 137,563.5C 135.726,558.356 135.226,553.356 135.5,548.5C 137.587,547.224 139.587,545.724 141.5,544C 143.81,543.503 146.143,543.337 148.5,543.5 Z"/></g>
<g><path style="opacity:1" fill="#3c1815" d="M 310.5,549.5 C 315.381,551.061 320.048,553.061 324.5,555.5C 323.322,556.999 321.655,557.999 319.5,558.5C 322.79,564.745 325.79,571.078 328.5,577.5C 328.167,577.5 327.833,577.5 327.5,577.5C 325.847,577.34 324.514,576.674 323.5,575.5C 323.027,574.094 322.027,573.427 320.5,573.5C 315.976,571.957 311.976,569.623 308.5,566.5C 308.027,565.094 307.027,564.427 305.5,564.5C 304.5,563.833 303.5,563.167 302.5,562.5C 302.167,561.5 301.5,560.833 300.5,560.5C 300.365,556.562 298.865,553.228 296,550.5C 294.266,548.549 292.099,547.549 289.5,547.5C 289.5,545.833 289.5,544.167 289.5,542.5C 293.454,543.227 296.954,544.894 300,547.5C 303.35,548.975 306.85,549.642 310.5,549.5 Z"/></g>
<g><path style="opacity:1" fill="#3e100d" d="M 264.5,545.5 C 271.841,545.334 279.174,545.5 286.5,546C 287.527,546.513 288.527,547.013 289.5,547.5C 292.099,547.549 294.266,548.549 296,550.5C 298.865,553.228 300.365,556.562 300.5,560.5C 300.5,561.833 300.5,563.167 300.5,564.5C 300.768,566.099 300.434,567.432 299.5,568.5C 298.094,568.973 297.427,569.973 297.5,571.5C 297.5,572.167 297.167,572.5 296.5,572.5C 295.391,572.557 294.391,572.89 293.5,573.5C 281.809,572.714 270.142,572.714 258.5,573.5C 257.761,573.631 257.094,573.464 256.5,573C 254.934,570.674 253.268,568.508 251.5,566.5C 251.5,566.167 251.5,565.833 251.5,565.5C 251.737,564.209 251.404,563.209 250.5,562.5C 250.764,553.234 255.43,547.568 264.5,545.5 Z"/></g>
<g><path style="opacity:1" fill="#5c2218" d="M 135.5,548.5 C 135.226,553.356 135.726,558.356 137,563.5C 137.229,566.458 138.396,568.958 140.5,571C 139.584,571.278 138.918,571.778 138.5,572.5C 138.167,572.5 137.833,572.5 137.5,572.5C 135.246,573.124 133.579,574.457 132.5,576.5C 127.989,577.931 123.655,579.598 119.5,581.5C 116.848,581.41 114.515,582.076 112.5,583.5C 101.815,583.39 91.1482,583.723 80.5,584.5C 79.5067,575.682 79.1734,566.682 79.5,557.5C 80.8333,557.167 82.1667,556.833 83.5,556.5C 87.1645,556.498 90.1645,555.165 92.5,552.5C 92.8333,552.5 93.1667,552.5 93.5,552.5C 96.1522,552.59 98.4855,551.924 100.5,550.5C 111.896,547.453 123.562,546.786 135.5,548.5 Z"/></g>
<g><path style="opacity:0.776" fill="#8e9e9e" d="M 454.5,540.5 C 454.872,547.185 453.872,553.519 451.5,559.5C 452.103,552.973 453.103,546.639 454.5,540.5 Z"/></g>
<g><path style="opacity:0.831" fill="#af8f8a" d="M 100.5,550.5 C 98.4855,551.924 96.1522,552.59 93.5,552.5C 95.5145,551.076 97.8478,550.41 100.5,550.5 Z"/></g>
<g><path style="opacity:0.859" fill="#8e7e7c" d="M 233.5,550.5 C 233.573,552.027 232.906,553.027 231.5,553.5C 231.427,551.973 232.094,550.973 233.5,550.5 Z"/></g>
<g><path style="opacity:0.351" fill="#a9b5b5" d="M 37.5,520.5 C 36.2498,533.628 35.2498,546.628 34.5,559.5C 34.3336,550.827 34.5002,542.16 35,533.5C 35.4288,528.953 36.2621,524.619 37.5,520.5 Z"/></g>
<g><path style="opacity:0.937" fill="#986f68" d="M 92.5,552.5 C 90.1645,555.165 87.1645,556.498 83.5,556.5C 86.0884,554.408 89.0884,553.075 92.5,552.5 Z"/></g>
<g><path style="opacity:1" fill="#724736" d="M 324.5,555.5 C 328.043,557.438 331.71,559.105 335.5,560.5C 336.514,561.674 337.847,562.34 339.5,562.5C 344.855,564.506 349.521,567.506 353.5,571.5C 353.842,572.338 354.508,572.672 355.5,572.5C 355.665,576.182 355.499,579.848 355,583.5C 353.401,586.632 350.901,588.299 347.5,588.5C 346.833,587.833 346.167,587.167 345.5,586.5C 340.28,585.551 335.614,583.551 331.5,580.5C 330.833,579.167 329.833,578.167 328.5,577.5C 325.79,571.078 322.79,564.745 319.5,558.5C 321.655,557.999 323.322,556.999 324.5,555.5 Z"/></g>
<g><path style="opacity:0.4" fill="#cec9c7" d="M 227.5,556.5 C 227.027,557.906 226.027,558.573 224.5,558.5C 224.973,557.094 225.973,556.427 227.5,556.5 Z"/></g>
<g><path style="opacity:1" fill="#3a261e" d="M 231.5,553.5 C 229.499,560.33 228.999,567.33 230,574.5C 230.24,576.852 231.073,578.852 232.5,580.5C 232.5,581.167 232.167,581.5 231.5,581.5C 230.5,581.833 229.833,582.5 229.5,583.5C 228.167,584.167 227.167,585.167 226.5,586.5C 224.5,587.833 222.833,589.5 221.5,591.5C 220.5,591.833 219.833,592.5 219.5,593.5C 218.5,593.833 217.833,594.5 217.5,595.5C 216.5,595.833 215.833,596.5 215.5,597.5C 215.167,598.5 214.5,599.167 213.5,599.5C 211.251,600.08 209.585,601.413 208.5,603.5C 208.158,604.338 207.492,604.672 206.5,604.5C 204.973,604.427 203.973,605.094 203.5,606.5C 198.701,609.737 193.701,612.737 188.5,615.5C 185.145,612.143 182.145,608.476 179.5,604.5C 177.257,603.526 174.924,603.192 172.5,603.5C 174.969,602.683 177.635,602.183 180.5,602C 182.635,597.391 185.302,593.224 188.5,589.5C 189.906,589.027 190.573,588.027 190.5,586.5C 192.262,585.738 193.262,584.404 193.5,582.5C 194.5,582.167 195.167,581.5 195.5,580.5C 196.5,580.167 197.167,579.5 197.5,578.5C 200.784,576.883 203.451,574.55 205.5,571.5C 207.027,571.573 208.027,570.906 208.5,569.5C 210.404,569.262 211.738,568.262 212.5,566.5C 216.852,564.327 220.852,561.66 224.5,558.5C 226.027,558.573 227.027,557.906 227.5,556.5C 228.795,555.512 230.128,554.512 231.5,553.5 Z"/></g>
<g><path style="opacity:0.106" fill="#dcd9d7" d="M 224.5,558.5 C 220.852,561.66 216.852,564.327 212.5,566.5C 215.803,562.844 219.803,560.178 224.5,558.5 Z"/></g>
<g><path style="opacity:0.737" fill="#a1aeaf" d="M 486.5,557.5 C 485.659,562.741 484.325,567.741 482.5,572.5C 483.138,567.81 483.971,563.144 485,558.5C 485.383,557.944 485.883,557.611 486.5,557.5 Z"/></g>
<g><path style="opacity:0.341" fill="#ccc0bf" d="M 300.5,560.5 C 301.5,560.833 302.167,561.5 302.5,562.5C 301.833,563.167 301.167,563.833 300.5,564.5C 300.5,563.167 300.5,561.833 300.5,560.5 Z"/></g>
<g><path style="opacity:0.153" fill="#ded4d0" d="M 335.5,560.5 C 337.38,560.229 338.713,560.896 339.5,562.5C 337.847,562.34 336.514,561.674 335.5,560.5 Z"/></g>
<g><path style="opacity:0.322" fill="#beb2b0" d="M 305.5,564.5 C 307.027,564.427 308.027,565.094 308.5,566.5C 306.973,566.573 305.973,565.906 305.5,564.5 Z"/></g>
<g><path style="opacity:0.392" fill="#c6c0bd" d="M 212.5,566.5 C 211.738,568.262 210.404,569.262 208.5,569.5C 209.262,567.738 210.596,566.738 212.5,566.5 Z"/></g>
<g><path style="opacity:0.933" fill="#8f7f7d" d="M 251.5,565.5 C 251.5,565.833 251.5,566.167 251.5,566.5C 251.771,568.38 251.104,569.713 249.5,570.5C 249.796,568.597 250.463,566.93 251.5,565.5 Z"/></g>
<g><path style="opacity:0.047" fill="#d1c6c4" d="M 299.5,568.5 C 299.573,570.027 298.906,571.027 297.5,571.5C 297.427,569.973 298.094,568.973 299.5,568.5 Z"/></g>
<g><path style="opacity:0.4" fill="#cbc6c3" d="M 208.5,569.5 C 208.027,570.906 207.027,571.573 205.5,571.5C 205.973,570.094 206.973,569.427 208.5,569.5 Z"/></g>
<g><path style="opacity:0.102" fill="#dcdbda" d="M 372.5,577.5 C 370.329,575.5 367.996,573.666 365.5,572C 362.076,571.253 358.743,571.42 355.5,572.5C 354.508,572.672 353.842,572.338 353.5,571.5C 357.747,570.398 362.08,570.232 366.5,571C 369.767,572.096 371.767,574.263 372.5,577.5 Z"/></g>
<g><path style="opacity:0.208" fill="#d6d2d0" d="M 205.5,571.5 C 203.451,574.55 200.784,576.883 197.5,578.5C 197.414,577.504 197.748,576.671 198.5,576C 200.734,574.25 203.068,572.75 205.5,571.5 Z"/></g>
<g><path style="opacity:1" fill="#3a1609" d="M 293.5,573.5 C 296.262,577.274 297.262,581.607 296.5,586.5C 296.5,587.167 296.5,587.833 296.5,588.5C 296.557,589.609 296.89,590.609 297.5,591.5C 295.786,599.639 294.786,608.139 294.5,617C 295.037,618.792 295.37,620.625 295.5,622.5C 293.804,632.087 293.137,641.754 293.5,651.5C 293.5,652.167 293.5,652.833 293.5,653.5C 292.826,676.827 292.493,700.161 292.5,723.5C 292.173,728.214 292.507,732.88 293.5,737.5C 296.833,738.167 298.167,740.167 297.5,743.5C 279.151,744.425 260.818,744.425 242.5,743.5C 242.738,741.355 243.738,739.688 245.5,738.5C 246.474,736.257 246.808,733.924 246.5,731.5C 246.404,716.626 247.071,701.793 248.5,687C 248.321,668.131 248.321,649.298 248.5,630.5C 250.573,613.905 252.073,597.238 253,580.5C 252.967,576.515 254.801,574.182 258.5,573.5C 270.142,572.714 281.809,572.714 293.5,573.5 Z"/></g>
<g><path style="opacity:1" fill="#1e1a17" d="M 372.5,577.5 C 371.168,584.159 368.835,590.493 365.5,596.5C 362.232,597.487 358.898,597.82 355.5,597.5C 351.435,595.767 348.768,592.767 347.5,588.5C 350.901,588.299 353.401,586.632 355,583.5C 355.499,579.848 355.665,576.182 355.5,572.5C 358.743,571.42 362.076,571.253 365.5,572C 367.996,573.666 370.329,575.5 372.5,577.5 Z"/></g>
<g><path style="opacity:0.027" fill="#cdc3c0" d="M 296.5,572.5 C 297.62,576.991 297.62,581.657 296.5,586.5C 297.262,581.607 296.262,577.274 293.5,573.5C 294.391,572.89 295.391,572.557 296.5,572.5 Z"/></g>
<g><path style="opacity:0.047" fill="#e8e0de" d="M 137.5,572.5 C 136.461,574.531 134.795,575.864 132.5,576.5C 133.579,574.457 135.246,573.124 137.5,572.5 Z"/></g>
<g><path style="opacity:0.345" fill="#bdaeaa" d="M 320.5,573.5 C 322.027,573.427 323.027,574.094 323.5,575.5C 321.973,575.573 320.973,574.906 320.5,573.5 Z"/></g>
<g><path style="opacity:0.427" fill="#b3bebe" d="M 34.5,559.5 C 35.0562,569.508 35.7229,579.508 36.5,589.5C 34.929,581.55 33.929,573.383 33.5,565C 33.5056,562.967 33.8389,561.134 34.5,559.5 Z"/></g>
<g><path style="opacity:0.294" fill="#b5abaa" d="M 248.5,575.5 C 248.573,577.027 247.906,578.027 246.5,578.5C 246.427,576.973 247.094,575.973 248.5,575.5 Z"/></g>
<g><path style="opacity:0.22" fill="#dbd7d6" d="M 197.5,578.5 C 197.167,579.5 196.5,580.167 195.5,580.5C 195.5,579.167 196.167,578.5 197.5,578.5 Z"/></g>
<g><path style="opacity:0.365" fill="#d6c9c4" d="M 327.5,577.5 C 327.833,577.5 328.167,577.5 328.5,577.5C 329.833,578.167 330.833,579.167 331.5,580.5C 329.596,580.262 328.262,579.262 327.5,577.5 Z"/></g>
<g><path style="opacity:0.012" fill="#e8dfde" d="M 132.5,576.5 C 128.797,579.517 124.464,581.184 119.5,581.5C 123.655,579.598 127.989,577.931 132.5,576.5 Z"/></g>
<g><path style="opacity:0.2" fill="#dedbd9" d="M 195.5,580.5 C 195.167,581.5 194.5,582.167 193.5,582.5C 193.5,581.167 194.167,580.5 195.5,580.5 Z"/></g>
<g><path style="opacity:1" fill="#26100d" d="M 251.5,566.5 C 253.268,568.508 254.934,570.674 256.5,573C 257.094,573.464 257.761,573.631 258.5,573.5C 254.801,574.182 252.967,576.515 253,580.5C 252.073,597.238 250.573,613.905 248.5,630.5C 247.189,633.135 245.522,635.469 243.5,637.5C 237.764,640.004 232.264,639.337 227,635.5C 226.501,631.848 226.335,628.182 226.5,624.5C 226.366,622.708 226.699,621.042 227.5,619.5C 229.213,618.365 229.88,616.698 229.5,614.5C 229.5,614.167 229.5,613.833 229.5,613.5C 231.834,611.824 232.834,609.491 232.5,606.5C 234.213,605.365 234.88,603.698 234.5,601.5C 234.66,599.847 235.326,598.514 236.5,597.5C 237.674,596.486 238.34,595.153 238.5,593.5C 240.931,591.954 242.264,589.621 242.5,586.5C 242.833,585.833 243.167,585.167 243.5,584.5C 244.906,584.027 245.573,583.027 245.5,581.5C 245.557,580.391 245.89,579.391 246.5,578.5C 247.906,578.027 248.573,577.027 248.5,575.5C 248.366,573.708 248.699,572.042 249.5,570.5C 251.104,569.713 251.771,568.38 251.5,566.5 Z"/></g>
<g><path style="opacity:0.863" fill="#889999" d="M 447.5,575.5 C 447.655,578.716 446.655,581.383 444.5,583.5C 444.98,580.557 445.98,577.89 447.5,575.5 Z"/></g>
<g><path style="opacity:0.016" fill="#e6dcdb" d="M 119.5,581.5 C 117.485,582.924 115.152,583.59 112.5,583.5C 114.515,582.076 116.848,581.41 119.5,581.5 Z"/></g>
<g><path style="opacity:0.008" fill="#ebe9e8" d="M 231.5,581.5 C 231.5,582.833 230.833,583.5 229.5,583.5C 229.833,582.5 230.5,581.833 231.5,581.5 Z"/></g>
<g><path style="opacity:1" fill="#602b23" d="M 372.5,577.5 C 373.404,578.209 373.737,579.209 373.5,580.5C 384.601,581.145 394.935,584.311 404.5,590C 414.224,596.52 423.891,603.02 433.5,609.5C 430.828,613.687 428.328,618.02 426,622.5C 424.961,623.71 423.794,624.71 422.5,625.5C 414.52,624.589 406.854,622.589 399.5,619.5C 398.486,618.326 397.153,617.66 395.5,617.5C 394.486,616.326 393.153,615.66 391.5,615.5C 391.027,614.094 390.027,613.427 388.5,613.5C 387.101,612.11 385.434,611.11 383.5,610.5C 378.803,608.822 374.803,606.156 371.5,602.5C 370.415,600.413 368.749,599.08 366.5,598.5C 362.833,598.5 359.167,598.5 355.5,598.5C 355.5,598.167 355.5,597.833 355.5,597.5C 358.898,597.82 362.232,597.487 365.5,596.5C 368.835,590.493 371.168,584.159 372.5,577.5 Z"/></g>
<g><path style="opacity:0.698" fill="#afa6a2" d="M 193.5,582.5 C 193.262,584.404 192.262,585.738 190.5,586.5C 190.738,584.596 191.738,583.262 193.5,582.5 Z"/></g>
<g><path style="opacity:0.365" fill="#ada3a2" d="M 245.5,581.5 C 245.573,583.027 244.906,584.027 243.5,584.5C 243.427,582.973 244.094,581.973 245.5,581.5 Z"/></g>
<g><path style="opacity:0.02" fill="#eae8e7" d="M 229.5,583.5 C 229.5,585.5 228.5,586.5 226.5,586.5C 227.167,585.167 228.167,584.167 229.5,583.5 Z"/></g>
<g><path style="opacity:0.357" fill="#bbb4b1" d="M 190.5,586.5 C 190.573,588.027 189.906,589.027 188.5,589.5C 188.427,587.973 189.094,586.973 190.5,586.5 Z"/></g>
<g><path style="opacity:0.02" fill="#e9e7e5" d="M 226.5,586.5 C 225.833,589.167 224.167,590.833 221.5,591.5C 222.833,589.5 224.5,587.833 226.5,586.5 Z"/></g>
<g><path style="opacity:0.969" fill="#7e6e6c" d="M 242.5,586.5 C 242.264,589.621 240.931,591.954 238.5,593.5C 239.079,590.669 240.412,588.336 242.5,586.5 Z"/></g>
<g><path style="opacity:0.114" fill="#dfdad8" d="M 296.5,588.5 C 298.727,589.401 299.727,591.067 299.5,593.5C 299.167,593.5 298.833,593.5 298.5,593.5C 298.167,592.833 297.833,592.167 297.5,591.5C 296.89,590.609 296.557,589.609 296.5,588.5 Z"/></g>
<g><path style="opacity:0.871" fill="#5d7475" d="M 480.5,581.5 C 478.206,588.727 475.539,595.727 472.5,602.5C 473.691,596.402 475.191,590.402 477,584.5C 477.422,582.574 478.589,581.574 480.5,581.5 Z"/></g>
<g><path style="opacity:0.02" fill="#dfdddb" d="M 221.5,591.5 C 221.5,592.833 220.833,593.5 219.5,593.5C 219.833,592.5 220.5,591.833 221.5,591.5 Z"/></g>
<g><path style="opacity:0.188" fill="#e2e1e1" d="M 345.5,586.5 C 346.167,587.167 346.833,587.833 347.5,588.5C 348.768,592.767 351.435,595.767 355.5,597.5C 355.5,597.833 355.5,598.167 355.5,598.5C 349.654,596.649 346.32,592.649 345.5,586.5 Z"/></g>
<g><path style="opacity:0.012" fill="#e7e5e4" d="M 219.5,593.5 C 219.5,594.833 218.833,595.5 217.5,595.5C 217.833,594.5 218.5,593.833 219.5,593.5 Z"/></g>
<g><path style="opacity:0.871" fill="#6f8383" d="M 80.5,588.5 C 81.9901,592.942 82.9901,597.609 83.5,602.5C 81.9328,601.319 81.0995,599.653 81,597.5C 80.502,594.518 80.3354,591.518 80.5,588.5 Z"/></g>
<g><path style="opacity:0.118" fill="#d2cdcc" d="M 238.5,593.5 C 238.34,595.153 237.674,596.486 236.5,597.5C 236.229,595.62 236.896,594.287 238.5,593.5 Z"/></g>
<g><path style="opacity:0.012" fill="#eceaea" d="M 217.5,595.5 C 217.5,596.833 216.833,597.5 215.5,597.5C 215.833,596.5 216.5,595.833 217.5,595.5 Z"/></g>
<g><path style="opacity:1" fill="#432118" d="M 298.5,593.5 C 298.833,593.5 299.167,593.5 299.5,593.5C 300.338,593.842 300.672,594.508 300.5,595.5C 300.992,597.819 301.992,599.819 303.5,601.5C 303.5,601.833 303.5,602.167 303.5,602.5C 303.528,605.916 304.528,608.916 306.5,611.5C 307.265,614.096 307.599,616.763 307.5,619.5C 306.904,621.398 306.904,623.065 307.5,624.5C 307.5,624.833 307.5,625.167 307.5,625.5C 304.302,626.934 300.968,627.434 297.5,627C 298.487,615.915 298.821,604.748 298.5,593.5 Z"/></g>
<g><path style="opacity:0.09" fill="#e3dddc" d="M 300.5,595.5 C 302.539,596.911 303.539,598.911 303.5,601.5C 301.992,599.819 300.992,597.819 300.5,595.5 Z"/></g>
<g><path style="opacity:0.851" fill="#b39693" d="M 366.5,598.5 C 368.749,599.08 370.415,600.413 371.5,602.5C 369.251,601.92 367.585,600.587 366.5,598.5 Z"/></g>
<g><path style="opacity:0.039" fill="#dfdcdb" d="M 213.5,599.5 C 212.415,601.587 210.749,602.92 208.5,603.5C 209.585,601.413 211.251,600.08 213.5,599.5 Z"/></g>
<g><path style="opacity:1" fill="#2e2523" d="M 172.5,603.5 C 174.924,603.192 177.257,603.526 179.5,604.5C 182.145,608.476 185.145,612.143 188.5,615.5C 186.525,627.13 179.525,633.13 167.5,633.5C 164.2,630.365 161.033,627.031 158,623.5C 157.503,621.19 157.337,618.857 157.5,616.5C 157.586,614.323 158.253,612.323 159.5,610.5C 161.65,608.851 163.65,607.018 165.5,605C 167.74,604.023 170.073,603.523 172.5,603.5 Z"/></g>
<g><path style="opacity:0.918" fill="#908280" d="M 234.5,601.5 C 234.88,603.698 234.213,605.365 232.5,606.5C 232.402,604.447 233.069,602.78 234.5,601.5 Z"/></g>
<g><path style="opacity:0.02" fill="#e6e3e2" d="M 206.5,604.5 C 206.027,605.906 205.027,606.573 203.5,606.5C 203.973,605.094 204.973,604.427 206.5,604.5 Z"/></g>
<g><path style="opacity:0.918" fill="#a28e89" d="M 303.5,602.5 C 305.072,605.215 306.072,608.215 306.5,611.5C 304.528,608.916 303.528,605.916 303.5,602.5 Z"/></g>
<g><path style="opacity:0.929" fill="#8f807e" d="M 232.5,606.5 C 232.834,609.491 231.834,611.824 229.5,613.5C 229.935,610.843 230.935,608.509 232.5,606.5 Z"/></g>
<g><path style="opacity:0.275" fill="#d6c7c5" d="M 383.5,610.5 C 385.434,611.11 387.101,612.11 388.5,613.5C 386.067,613.727 384.401,612.727 383.5,610.5 Z"/></g>
<g><path style="opacity:0.008" fill="#d2d9d9" d="M 40.5,611.5 C 42.2576,614.854 43.2576,618.521 43.5,622.5C 41.7424,619.146 40.7424,615.479 40.5,611.5 Z"/></g>
<g><path style="opacity:0.302" fill="#cbb9b7" d="M 388.5,613.5 C 390.027,613.427 391.027,614.094 391.5,615.5C 389.973,615.573 388.973,614.906 388.5,613.5 Z"/></g>
<g><path style="opacity:0.043" fill="#e7dfde" d="M 391.5,615.5 C 393.153,615.66 394.486,616.326 395.5,617.5C 393.62,617.771 392.287,617.104 391.5,615.5 Z"/></g>
<g><path style="opacity:0.776" fill="#a29795" d="M 229.5,614.5 C 229.88,616.698 229.213,618.365 227.5,619.5C 227.796,617.597 228.463,615.93 229.5,614.5 Z"/></g>
<g><path style="opacity:0.047" fill="#f1eceb" d="M 395.5,617.5 C 397.153,617.66 398.486,618.326 399.5,619.5C 397.62,619.771 396.287,619.104 395.5,617.5 Z"/></g>
<g><path style="opacity:0.165" fill="#d6cecc" d="M 307.5,619.5 C 308.72,621.05 308.72,622.716 307.5,624.5C 306.904,623.065 306.904,621.398 307.5,619.5 Z"/></g>
<g><path style="opacity:1" fill="#49291a" d="M 157.5,616.5 C 157.337,618.857 157.503,621.19 158,623.5C 161.033,627.031 164.2,630.365 167.5,633.5C 167.706,636.495 167.04,639.162 165.5,641.5C 161.195,649.653 155.862,657.153 149.5,664C 142.937,668.442 136.271,672.609 129.5,676.5C 127.784,676.629 126.117,676.962 124.5,677.5C 117.961,673.961 113.628,668.628 111.5,661.5C 112.167,659.5 112.833,657.5 113.5,655.5C 119.766,645.903 127.099,637.236 135.5,629.5C 138.68,627.745 141.68,625.745 144.5,623.5C 147.491,623.834 149.824,622.834 151.5,620.5C 153.042,619.699 154.708,619.366 156.5,619.5C 156.263,618.209 156.596,617.209 157.5,616.5 Z"/></g>
<g><path style="opacity:0.937" fill="#98847a" d="M 151.5,620.5 C 149.824,622.834 147.491,623.834 144.5,623.5C 146.426,621.707 148.759,620.707 151.5,620.5 Z"/></g>
<g><path style="opacity:1" fill="#251912" d="M 297.5,591.5 C 297.833,592.167 298.167,592.833 298.5,593.5C 298.821,604.748 298.487,615.915 297.5,627C 300.968,627.434 304.302,626.934 307.5,625.5C 311.482,627.817 314.815,630.817 317.5,634.5C 318.833,639.167 318.833,643.833 317.5,648.5C 316.833,648.833 316.167,649.167 315.5,649.5C 310.361,651.545 305.028,653.212 299.5,654.5C 298.609,653.89 297.609,653.557 296.5,653.5C 296.167,653.5 295.833,653.5 295.5,653.5C 295.167,652.5 294.5,651.833 293.5,651.5C 293.137,641.754 293.804,632.087 295.5,622.5C 295.37,620.625 295.037,618.792 294.5,617C 294.786,608.139 295.786,599.639 297.5,591.5 Z"/></g>
<g><path style="opacity:0.137" fill="#dfd9d6" d="M 144.5,623.5 C 141.68,625.745 138.68,627.745 135.5,629.5C 137.63,626.263 140.63,624.263 144.5,623.5 Z"/></g>
<g><path style="opacity:0.004" fill="#e2e0df" d="M 307.5,625.5 C 307.5,625.167 307.5,624.833 307.5,624.5C 312.869,625.869 316.203,629.203 317.5,634.5C 314.815,630.817 311.482,627.817 307.5,625.5 Z"/></g>
<g><path style="opacity:1" fill="#1f1b17" d="M 226.5,624.5 C 226.335,628.182 226.501,631.848 227,635.5C 232.264,639.337 237.764,640.004 243.5,637.5C 243.5,638.167 243.5,638.833 243.5,639.5C 243.66,641.153 244.326,642.486 245.5,643.5C 246.848,648.406 246.682,653.406 245,658.5C 243.264,661.739 240.764,664.073 237.5,665.5C 228.464,668.096 220.464,666.429 213.5,660.5C 212.491,655.204 212.324,649.871 213,644.5C 213.278,643.584 213.778,642.918 214.5,642.5C 215.906,642.027 216.573,641.027 216.5,639.5C 218.404,639.262 219.738,638.262 220.5,636.5C 221.833,635.067 223.333,633.733 225,632.5C 225.183,629.635 225.683,626.969 226.5,624.5 Z"/></g>
<g><path style="opacity:0.624" fill="#9e9b99" d="M 220.5,636.5 C 219.738,638.262 218.404,639.262 216.5,639.5C 217.262,637.738 218.596,636.738 220.5,636.5 Z"/></g>
<g><path style="opacity:0.055" fill="#e3e7e7" d="M 472.5,602.5 C 470.178,610.15 467.011,617.484 463,624.5C 445.224,653.621 424.391,680.454 400.5,705C 398.595,706.421 396.595,707.588 394.5,708.5C 400.771,702.73 406.938,696.73 413,690.5C 436.582,663.66 456.415,634.327 472.5,602.5 Z"/></g>
<g><path style="opacity:0.404" fill="#a9a7a6" d="M 216.5,639.5 C 216.573,641.027 215.906,642.027 214.5,642.5C 214.427,640.973 215.094,639.973 216.5,639.5 Z"/></g>
<g><path style="opacity:0.031" fill="#e1e1e0" d="M 243.5,639.5 C 245.104,640.287 245.771,641.62 245.5,643.5C 244.326,642.486 243.66,641.153 243.5,639.5 Z"/></g>
<g><path style="opacity:0.012" fill="#d7dcdd" d="M 49.5,642.5 C 50.7384,644.214 51.405,646.214 51.5,648.5C 49.9261,646.898 49.2594,644.898 49.5,642.5 Z"/></g>
<g><path style="opacity:1" fill="#451e14" d="M 315.5,649.5 C 323.651,657.815 330.318,667.148 335.5,677.5C 336.404,678.209 336.737,679.209 336.5,680.5C 336.595,682.786 337.262,684.786 338.5,686.5C 338.5,688.833 338.5,691.167 338.5,693.5C 338.41,696.152 339.076,698.485 340.5,700.5C 340.5,701.167 340.5,701.833 340.5,702.5C 340.5,703.167 340.5,703.833 340.5,704.5C 334.57,707.961 328.236,710.627 321.5,712.5C 320.833,712.5 320.167,712.5 319.5,712.5C 316.805,709.474 314.138,706.474 311.5,703.5C 306.305,693.574 302.305,683.24 299.5,672.5C 299.5,672.167 299.5,671.833 299.5,671.5C 299.5,665.833 299.5,660.167 299.5,654.5C 305.028,653.212 310.361,651.545 315.5,649.5 Z"/></g>
<g><path style="opacity:0.082" fill="#dfe4e4" d="M 52.5,651.5 C 53.9313,652.78 54.5979,654.447 54.5,656.5C 53.0687,655.22 52.4021,653.553 52.5,651.5 Z"/></g>
<g><path style="opacity:0.412" fill="#aebaba" d="M 103.5,650.5 C 104.906,650.973 105.573,651.973 105.5,653.5C 104.094,653.027 103.427,652.027 103.5,650.5 Z"/></g>
<g><path style="opacity:0.012" fill="#f0efee" d="M 293.5,651.5 C 294.5,651.833 295.167,652.5 295.5,653.5C 294.833,653.5 294.167,653.5 293.5,653.5C 293.5,652.833 293.5,652.167 293.5,651.5 Z"/></g>
<g><path style="opacity:0.078" fill="#ddd7d4" d="M 135.5,629.5 C 127.099,637.236 119.766,645.903 113.5,655.5C 114.352,652.777 115.519,650.11 117,647.5C 119.667,644.167 122.333,640.833 125,637.5C 128.087,634.241 131.587,631.574 135.5,629.5 Z"/></g>
<g><path style="opacity:0.275" fill="#c0c9c9" d="M 105.5,653.5 C 107.822,654.802 109.155,656.802 109.5,659.5C 107.674,657.853 106.34,655.853 105.5,653.5 Z"/></g>
<g><path style="opacity:0.082" fill="#e3e0de" d="M 113.5,655.5 C 112.833,657.5 112.167,659.5 111.5,661.5C 110.167,661.5 109.5,660.833 109.5,659.5C 110.833,658.167 112.167,656.833 113.5,655.5 Z"/></g>
<g><path style="opacity:0.804" fill="#8d766f" d="M 296.5,653.5 C 297.609,653.557 298.609,653.89 299.5,654.5C 299.5,660.167 299.5,665.833 299.5,671.5C 298.673,666.349 298.173,661.016 298,655.5C 297.283,654.956 296.783,654.289 296.5,653.5 Z"/></g>
<g><path style="opacity:0.024" fill="#dee3e3" d="M 57.5,662.5 C 58.9063,662.973 59.573,663.973 59.5,665.5C 58.0937,665.027 57.427,664.027 57.5,662.5 Z"/></g>
<g><path style="opacity:1" fill="#381d11" d="M 213.5,660.5 C 220.464,666.429 228.464,668.096 237.5,665.5C 237.065,667.297 237.065,669.297 237.5,671.5C 237.41,674.152 238.076,676.485 239.5,678.5C 239.795,685.588 239.462,692.588 238.5,699.5C 236.96,701.838 236.294,704.505 236.5,707.5C 233.931,712.985 231.597,718.651 229.5,724.5C 229.068,725.71 228.401,726.71 227.5,727.5C 226.662,727.842 226.328,728.508 226.5,729.5C 217.837,728.504 209.504,726.504 201.5,723.5C 201.167,723.5 200.833,723.5 200.5,723.5C 199.024,711.364 199.858,699.364 203,687.5C 203.566,685.277 204.4,683.277 205.5,681.5C 207.074,679.898 207.741,677.898 207.5,675.5C 207.328,674.508 207.662,673.842 208.5,673.5C 210.213,672.365 210.88,670.698 210.5,668.5C 211.89,667.101 212.89,665.434 213.5,663.5C 213.5,662.5 213.5,661.5 213.5,660.5 Z"/></g>
<g><path style="opacity:0.216" fill="#d5d0cd" d="M 213.5,663.5 C 212.89,665.434 211.89,667.101 210.5,668.5C 210.273,666.067 211.273,664.401 213.5,663.5 Z"/></g>
<g><path style="opacity:0.047" fill="#d7dddd" d="M 59.5,665.5 C 60.9063,665.973 61.573,666.973 61.5,668.5C 60.0937,668.027 59.427,667.027 59.5,665.5 Z"/></g>
<g><path style="opacity:0.024" fill="#dfe4e4" d="M 61.5,668.5 C 62.9063,668.973 63.573,669.973 63.5,671.5C 62.0937,671.027 61.427,670.027 61.5,668.5 Z"/></g>
<g><path style="opacity:0.031" fill="#e8e3e1" d="M 165.5,641.5 C 159.471,659.195 147.471,670.861 129.5,676.5C 136.271,672.609 142.937,668.442 149.5,664C 155.862,657.153 161.195,649.653 165.5,641.5 Z"/></g>
<g><path style="opacity:0.894" fill="#a4968f" d="M 210.5,668.5 C 210.88,670.698 210.213,672.365 208.5,673.5C 208.402,671.447 209.069,669.78 210.5,668.5 Z"/></g>
<g><path style="opacity:0.02" fill="#dfe4e4" d="M 63.5,671.5 C 65.2624,672.262 66.2624,673.596 66.5,675.5C 64.7376,674.738 63.7376,673.404 63.5,671.5 Z"/></g>
<g><path style="opacity:0.027" fill="#e7e2e1" d="M 317.5,648.5 C 321.81,653.653 325.977,658.986 330,664.5C 332.937,668.374 334.771,672.707 335.5,677.5C 330.318,667.148 323.651,657.815 315.5,649.5C 316.167,649.167 316.833,648.833 317.5,648.5 Z"/></g>
<g><path style="opacity:0.231" fill="#dbe0e0" d="M 385.5,672.5 C 384.833,673.833 383.833,674.833 382.5,675.5C 382.5,673.5 383.5,672.5 385.5,672.5 Z"/></g>
<g><path style="opacity:0.02" fill="#e0e5e5" d="M 66.5,675.5 C 68.5869,676.585 69.9202,678.251 70.5,680.5C 68.4131,679.415 67.0798,677.749 66.5,675.5 Z"/></g>
<g><path style="opacity:0.51" fill="#a69892" d="M 237.5,671.5 C 238.924,673.515 239.59,675.848 239.5,678.5C 238.076,676.485 237.41,674.152 237.5,671.5 Z"/></g>
<g><path style="opacity:0.961" fill="#8f7c74" d="M 207.5,675.5 C 207.741,677.898 207.074,679.898 205.5,681.5C 205.259,679.102 205.926,677.102 207.5,675.5 Z"/></g>
<g><path style="opacity:0.573" fill="#b5bfc0" d="M 382.5,675.5 C 381.415,677.587 379.749,678.92 377.5,679.5C 378.585,677.413 380.251,676.08 382.5,675.5 Z"/></g>
<g><path style="opacity:0.102" fill="#e8ebec" d="M 377.5,679.5 C 377.167,680.5 376.5,681.167 375.5,681.5C 375.5,680.167 376.167,679.5 377.5,679.5 Z"/></g>
<g><path style="opacity:0.118" fill="#e5e8e8" d="M 129.5,676.5 C 129.082,677.222 128.416,677.722 127.5,678C 132.292,681.722 136.625,685.889 140.5,690.5C 134.581,686.917 129.248,682.584 124.5,677.5C 126.117,676.962 127.784,676.629 129.5,676.5 Z"/></g>
<g><path style="opacity:0.02" fill="#e7eaea" d="M 70.5,680.5 C 72.2624,681.262 73.2624,682.596 73.5,684.5C 71.7376,683.738 70.7376,682.404 70.5,680.5 Z"/></g>
<g><path style="opacity:0.01" fill="#ebe7e6" d="M 336.5,680.5 C 338.074,682.102 338.741,684.102 338.5,686.5C 337.262,684.786 336.595,682.786 336.5,680.5 Z"/></g>
<g><path style="opacity:0.812" fill="#9caaaa" d="M 375.5,681.5 C 374.415,683.587 372.749,684.92 370.5,685.5C 371.585,683.413 373.251,682.08 375.5,681.5 Z"/></g>
<g><path style="opacity:0.114" fill="#cbd2d2" d="M 370.5,685.5 C 368.45,687.547 366.117,689.214 363.5,690.5C 364.992,687.677 367.326,686.01 370.5,685.5 Z"/></g>
<g><path style="opacity:0.004" fill="#dde1e2" d="M 73.5,684.5 C 76.5398,687.539 79.2065,690.873 81.5,694.5C 77.6998,692.037 75.0332,688.704 73.5,684.5 Z"/></g>
<g><path style="opacity:0.012" fill="#dde2e2" d="M 140.5,690.5 C 142.749,691.08 144.415,692.413 145.5,694.5C 143.251,693.92 141.585,692.587 140.5,690.5 Z"/></g>
<g><path style="opacity:0.118" fill="#d6dcdc" d="M 363.5,690.5 C 362.341,692.25 360.674,693.25 358.5,693.5C 359.659,691.75 361.326,690.75 363.5,690.5 Z"/></g>
<g><path style="opacity:0.016" fill="#d7dddd" d="M 145.5,694.5 C 147.404,694.738 148.738,695.738 149.5,697.5C 147.596,697.262 146.262,696.262 145.5,694.5 Z"/></g>
<g><path style="opacity:0.071" fill="#dadfdf" d="M 358.5,693.5 C 356.853,695.326 354.853,696.66 352.5,697.5C 353.802,695.178 355.802,693.845 358.5,693.5 Z"/></g>
<g><path style="opacity:0.059" fill="#e3dcdb" d="M 299.5,672.5 C 302.305,683.24 306.305,693.574 311.5,703.5C 308.74,701.905 306.907,699.572 306,696.5C 302.906,688.724 300.74,680.724 299.5,672.5 Z"/></g>
<g><path style="opacity:0.157" fill="#dee3e3" d="M 352.5,697.5 C 351.101,698.89 349.434,699.89 347.5,700.5C 348.401,698.273 350.067,697.273 352.5,697.5 Z"/></g>
<g><path style="opacity:0.741" fill="#98807a" d="M 338.5,693.5 C 339.924,695.515 340.59,697.848 340.5,700.5C 339.076,698.485 338.41,696.152 338.5,693.5 Z"/></g>
<g><path style="opacity:0.188" fill="#dadfdf" d="M 149.5,697.5 C 153.707,699.435 157.373,702.102 160.5,705.5C 156.268,703.6 152.601,700.933 149.5,697.5 Z"/></g>
<g><path style="opacity:0.129" fill="#d4d9d8" d="M 347.5,700.5 C 345.664,702.588 343.331,703.921 340.5,704.5C 340.5,703.833 340.5,703.167 340.5,702.5C 342.921,702.122 345.254,701.455 347.5,700.5 Z"/></g>
<g><path style="opacity:0.008" fill="#d9d4d1" d="M 238.5,699.5 C 238.435,702.428 237.768,705.095 236.5,707.5C 236.294,704.505 236.96,701.838 238.5,699.5 Z"/></g>
<g><path style="opacity:0.137" fill="#ebe7e6" d="M 311.5,703.5 C 314.138,706.474 316.805,709.474 319.5,712.5C 315.398,710.734 312.731,707.734 311.5,703.5 Z"/></g>
<g><path style="opacity:0.996" fill="#8b9b9b" d="M 160.5,705.5 C 162.795,706.136 164.461,707.469 165.5,709.5C 163.019,709.226 161.353,707.893 160.5,705.5 Z"/></g>
<g><path style="opacity:0.396" fill="#aab6b6" d="M 165.5,709.5 C 170.053,710.562 174.053,712.562 177.5,715.5C 172.914,714.54 168.914,712.54 165.5,709.5 Z"/></g>
<g><path style="opacity:0.29" fill="#d7d1ce" d="M 236.5,707.5 C 235.499,713.865 233.166,719.532 229.5,724.5C 231.597,718.651 233.931,712.985 236.5,707.5 Z"/></g>
<g><path style="opacity:0.094" fill="#e1e1e1" d="M 319.5,712.5 C 320.167,712.5 320.833,712.5 321.5,712.5C 320.713,714.104 319.38,714.771 317.5,714.5C 318.167,713.833 318.833,713.167 319.5,712.5 Z"/></g>
<g><path style="opacity:0.071" fill="#dbe1e1" d="M 317.5,714.5 C 316.22,715.931 314.553,716.598 312.5,716.5C 313.78,715.069 315.447,714.402 317.5,714.5 Z"/></g>
<g><path style="opacity:0.075" fill="#dae0e0" d="M 312.5,716.5 C 311.22,717.931 309.553,718.598 307.5,718.5C 308.78,717.069 310.447,716.402 312.5,716.5 Z"/></g>
<g><path style="opacity:0.859" fill="#7f9191" d="M 307.5,718.5 C 304.617,721.656 300.951,722.99 296.5,722.5C 299.939,720.796 303.605,719.462 307.5,718.5 Z"/></g>
<g><path style="opacity:0.016" fill="#e2e6e7" d="M 81.5,694.5 C 93.4793,706.145 105.479,717.812 117.5,729.5C 116.448,729.649 115.448,729.483 114.5,729C 111.797,725.962 108.797,723.295 105.5,721C 97.2931,712.296 89.2931,703.463 81.5,694.5 Z"/></g>
<g><path style="opacity:0.282" fill="#ccd1d1" d="M 227.5,727.5 C 228.1,728.9 229.1,729.9 230.5,730.5C 228.901,730.768 227.568,730.434 226.5,729.5C 226.328,728.508 226.662,727.842 227.5,727.5 Z"/></g>
<g><path style="opacity:0.012" fill="#e3e7e7" d="M 117.5,729.5 C 122.45,732.453 127.117,735.786 131.5,739.5C 125.993,737.323 121.326,733.99 117.5,729.5 Z"/></g>
<g><path style="opacity:1" fill="#531516" d="M 297.5,743.5 C 297.5,749.5 297.5,755.5 297.5,761.5C 297.5,761.833 297.5,762.167 297.5,762.5C 297.5,763.833 297.5,765.167 297.5,766.5C 297.876,775.235 297.376,783.902 296,792.5C 295.5,793 295,793.5 294.5,794C 291.081,794.248 287.747,794.748 284.5,795.5C 275.161,795.666 265.827,795.5 256.5,795C 251.074,795.227 246.241,793.727 242,790.5C 241.5,784.175 241.334,777.842 241.5,771.5C 241.279,762.134 241.613,752.801 242.5,743.5C 260.818,744.425 279.151,744.425 297.5,743.5 Z"/></g>
<g><path style="opacity:0.051" fill="#e8ecec" d="M 131.5,739.5 C 136.024,741.043 140.024,743.377 143.5,746.5C 138.955,744.924 134.955,742.591 131.5,739.5 Z"/></g>
<g><path style="opacity:0.349" fill="#adb8b9" d="M 156.5,752.5 C 158.027,752.427 159.027,753.094 159.5,754.5C 157.973,754.573 156.973,753.906 156.5,752.5 Z"/></g>
<g><path style="opacity:0.008" fill="#e3e7e7" d="M 354.5,735.5 C 347.161,740.505 339.494,745.005 331.5,749C 324.294,752.343 316.96,755.177 309.5,757.5C 324.584,750.458 339.584,743.125 354.5,735.5 Z"/></g>
<g><path style="opacity:0.114" fill="#dde2e3" d="M 309.5,757.5 C 305.924,759.922 301.924,761.589 297.5,762.5C 297.5,762.167 297.5,761.833 297.5,761.5C 301.438,759.965 305.438,758.632 309.5,757.5 Z"/></g>
<g><path style="opacity:0.655" fill="#8e9e9e" d="M 187.5,763.5 C 190.152,763.41 192.485,764.076 194.5,765.5C 191.848,765.59 189.515,764.924 187.5,763.5 Z"/></g>
<g><path style="opacity:1" fill="#4f2e26" d="M 319.5,768.5 C 320.78,769.931 322.447,770.598 324.5,770.5C 326.332,771.248 327.999,772.248 329.5,773.5C 331.02,776.788 333.353,779.454 336.5,781.5C 336.833,781.5 337.167,781.5 337.5,781.5C 337.525,784.179 338.858,785.512 341.5,785.5C 341.427,787.027 342.094,788.027 343.5,788.5C 347.145,791.774 349.812,795.774 351.5,800.5C 330.751,801.342 310.084,803.175 289.5,806C 261.572,810.966 233.572,815.132 205.5,818.5C 192.35,817.061 180.35,812.561 169.5,805C 168.12,803.075 166.62,801.241 165,799.5C 161.618,792.055 157.785,785.055 153.5,778.5C 153.5,777.833 153.5,777.167 153.5,776.5C 155.027,776.573 156.027,775.906 156.5,774.5C 160.099,773.656 163.766,773.323 167.5,773.5C 175.862,773.665 184.195,773.332 192.5,772.5C 190.717,779.16 192.05,785.16 196.5,790.5C 202.501,794.836 208.834,798.669 215.5,802C 238.729,801.01 261.729,798.843 284.5,795.5C 287.747,794.748 291.081,794.248 294.5,794C 295,793.5 295.5,793 296,792.5C 297.376,783.902 297.876,775.235 297.5,766.5C 301.375,766.644 305.208,766.31 309,765.5C 312.782,765.947 316.282,766.947 319.5,768.5 Z"/></g>
<g><path style="opacity:0.039" fill="#c7cbca" d="M 213.5,768.5 C 215.898,768.259 217.898,768.926 219.5,770.5C 218.167,770.5 216.833,770.5 215.5,770.5C 214.833,769.833 214.167,769.167 213.5,768.5 Z"/></g>
<g><path style="opacity:0.431" fill="#b9aba7" d="M 319.5,768.5 C 321.553,768.402 323.22,769.069 324.5,770.5C 322.447,770.598 320.78,769.931 319.5,768.5 Z"/></g>
<g><path style="opacity:1" fill="#38180e" d="M 215.5,770.5 C 216.833,770.5 218.167,770.5 219.5,770.5C 226.822,771.038 234.155,771.371 241.5,771.5C 241.334,777.842 241.5,784.175 242,790.5C 246.241,793.727 251.074,795.227 256.5,795C 265.827,795.5 275.161,795.666 284.5,795.5C 261.729,798.843 238.729,801.01 215.5,802C 208.834,798.669 202.501,794.836 196.5,790.5C 192.05,785.16 190.717,779.16 192.5,772.5C 193.167,772.5 193.5,772.167 193.5,771.5C 200.84,771.277 208.173,770.944 215.5,770.5 Z"/></g>
<g><path style="opacity:0.945" fill="#755a53" d="M 193.5,771.5 C 193.5,772.167 193.167,772.5 192.5,772.5C 184.195,773.332 175.862,773.665 167.5,773.5C 175.981,772.355 184.648,771.689 193.5,771.5 Z"/></g>
<g><path style="opacity:0.118" fill="#e2dcda" d="M 156.5,774.5 C 156.027,775.906 155.027,776.573 153.5,776.5C 153.062,776.565 152.728,776.399 152.5,776C 153.126,775.25 153.626,774.416 154,773.5C 154.671,774.252 155.504,774.586 156.5,774.5 Z"/></g>
<g><path style="opacity:0.753" fill="#9b8883" d="M 329.5,773.5 C 332.573,775.569 334.906,778.236 336.5,781.5C 333.353,779.454 331.02,776.788 329.5,773.5 Z"/></g>
<g><path style="opacity:1" fill="#251610" d="M 153.5,778.5 C 157.785,785.055 161.618,792.055 165,799.5C 166.62,801.241 168.12,803.075 169.5,805C 180.35,812.561 192.35,817.061 205.5,818.5C 206.167,824.167 206.833,829.833 207.5,835.5C 201.333,835.899 195.333,835.232 189.5,833.5C 186.444,832.412 183.444,832.412 180.5,833.5C 180.119,832.069 179.119,831.236 177.5,831C 177.833,830.667 178.167,830.333 178.5,830C 173.142,827.646 168.642,824.146 165,819.5C 161.478,814.434 157.978,809.434 154.5,804.5C 154.637,796.082 153.97,787.749 152.5,779.5C 152.624,778.893 152.957,778.56 153.5,778.5 Z"/></g>
<g><path style="opacity:0.953" fill="#9c8883" d="M 337.5,781.5 C 339.341,782.402 340.674,783.736 341.5,785.5C 338.858,785.512 337.525,784.179 337.5,781.5 Z"/></g>
<g><path style="opacity:0.635" fill="#b1a19e" d="M 341.5,785.5 C 342.906,785.973 343.573,786.973 343.5,788.5C 342.094,788.027 341.427,787.027 341.5,785.5 Z"/></g>
<g><path style="opacity:1" fill="#451f1a" d="M 351.5,800.5 C 351.653,806.61 351.653,812.943 351.5,819.5C 348.14,819.616 344.807,819.949 341.5,820.5C 326.292,821.96 311.292,823.96 296.5,826.5C 288.81,826.92 281.144,827.586 273.5,828.5C 269.671,827.931 266.337,828.598 263.5,830.5C 258.848,830.998 254.181,831.331 249.5,831.5C 245.818,831.335 242.152,831.501 238.5,832C 237.584,832.278 236.918,832.778 236.5,833.5C 226.841,834.269 217.175,834.935 207.5,835.5C 206.833,829.833 206.167,824.167 205.5,818.5C 233.572,815.132 261.572,810.966 289.5,806C 310.084,803.175 330.751,801.342 351.5,800.5 Z"/></g>
<g><path style="opacity:1" fill="#1e1412" d="M 154.5,804.5 C 157.978,809.434 161.478,814.434 165,819.5C 168.642,824.146 173.142,827.646 178.5,830C 178.167,830.333 177.833,830.667 177.5,831C 179.119,831.236 180.119,832.069 180.5,833.5C 176.464,835.296 175.131,838.129 176.5,842C 176.518,844.41 175.851,846.577 174.5,848.5C 172.896,849.287 172.229,850.62 172.5,852.5C 170.874,857.723 168.874,862.723 166.5,867.5C 164.13,867.983 163.463,869.149 164.5,871C 162.667,871.5 161.5,872.667 161,874.5C 160.503,876.81 160.337,879.143 160.5,881.5C 158.305,888.643 155.305,895.31 151.5,901.5C 149.087,902.68 148.087,904.68 148.5,907.5C 147.736,910.018 146.736,912.351 145.5,914.5C 143.917,916.663 142.584,918.996 141.5,921.5C 141.611,922.117 141.944,922.617 142.5,923C 138.751,926.328 136.417,930.495 135.5,935.5C 132.717,941.743 129.883,948.077 127,954.5C 125.688,952.342 124.022,952.009 122,953.5C 122.893,939.25 125.393,925.25 129.5,911.5C 130.222,911.082 130.722,910.416 131,909.5C 131.497,906.854 131.664,904.187 131.5,901.5C 131.5,901.167 131.5,900.833 131.5,900.5C 133.163,898.562 133.829,896.228 133.5,893.5C 136.703,877.024 140.37,860.691 144.5,844.5C 145.931,843.22 146.598,841.553 146.5,839.5C 147.674,838.486 148.34,837.153 148.5,835.5C 148.833,834.5 149.5,833.833 150.5,833.5C 154.424,830.998 155.424,827.664 153.5,823.5C 153.209,817.077 153.542,810.744 154.5,804.5 Z"/></g>
<g><path style="opacity:1" fill="#251919" d="M 341.5,820.5 C 341.5,820.833 341.5,821.167 341.5,821.5C 341.523,829.183 341.857,836.85 342.5,844.5C 332.961,845.507 323.461,846.841 314,848.5C 312.467,848.227 310.967,847.894 309.5,847.5C 309.167,847.5 308.833,847.5 308.5,847.5C 308.167,846.167 307.833,846.167 307.5,847.5C 306.24,847.201 305.073,847.201 304,847.5C 303.544,846.256 304.044,845.423 305.5,845C 304.748,844.329 304.414,843.496 304.5,842.5C 302.443,837.039 299.777,831.706 296.5,826.5C 311.292,823.96 326.292,821.96 341.5,820.5 Z"/></g>
<g><path style="opacity:1" fill="#1f1412" d="M 296.5,826.5 C 299.777,831.706 302.443,837.039 304.5,842.5C 304.414,843.496 304.748,844.329 305.5,845C 304.044,845.423 303.544,846.256 304,847.5C 305.073,847.201 306.24,847.201 307.5,847.5C 307.833,847.5 308.167,847.5 308.5,847.5C 308.66,849.153 309.326,850.486 310.5,851.5C 310.5,852.167 310.833,852.5 311.5,852.5C 311.771,872.171 312.271,891.838 313,911.5C 313.249,918.574 314.082,925.574 315.5,932.5C 314.167,936.5 311.5,937.833 307.5,936.5C 298.462,916.56 290.295,896.226 283,875.5C 280.466,866.431 279.966,857.265 281.5,848C 278.141,843.155 275.474,837.988 273.5,832.5C 273.5,831.167 273.5,829.833 273.5,828.5C 281.144,827.586 288.81,826.92 296.5,826.5 Z"/></g>
<g><path style="opacity:0.99" fill="#755a55" d="M 273.5,828.5 C 273.5,829.833 273.5,831.167 273.5,832.5C 272.596,831.791 272.263,830.791 272.5,829.5C 269.43,829.368 266.43,829.701 263.5,830.5C 266.337,828.598 269.671,827.931 273.5,828.5 Z"/></g>
<g><path style="opacity:0.106" fill="#c4c0bf" d="M 153.5,823.5 C 155.424,827.664 154.424,830.998 150.5,833.5C 150.949,829.952 151.949,826.619 153.5,823.5 Z"/></g>
<g><path style="opacity:0.961" fill="#866864" d="M 249.5,831.5 C 245.21,832.255 240.877,833.255 236.5,834.5C 236.5,834.167 236.5,833.833 236.5,833.5C 236.918,832.778 237.584,832.278 238.5,832C 242.152,831.501 245.818,831.335 249.5,831.5 Z"/></g>
<g><path style="opacity:1" fill="#281b1b" d="M 189.5,833.5 C 195.333,835.232 201.333,835.899 207.5,835.5C 217.175,834.935 226.841,834.269 236.5,833.5C 236.5,833.833 236.5,834.167 236.5,834.5C 236.5,835.167 236.5,835.833 236.5,836.5C 235.262,838.214 234.595,840.214 234.5,842.5C 234.029,844.579 233.363,846.579 232.5,848.5C 230.926,850.102 230.259,852.102 230.5,854.5C 230.5,854.833 230.5,855.167 230.5,855.5C 229.143,856.59 228.143,857.924 227.5,859.5C 217.201,860.594 206.867,860.76 196.5,860C 195.473,859.487 194.473,858.987 193.5,858.5C 192.81,851.683 192.144,844.85 191.5,838C 191.241,836.213 190.575,834.713 189.5,833.5 Z"/></g>
<g><path style="opacity:0.086" fill="#edeceb" d="M 424.5,834.5 C 425.833,835.167 425.833,835.167 424.5,834.5 Z"/></g>
<g><path style="opacity:0.051" fill="#e2e0e0" d="M 148.5,835.5 C 148.34,837.153 147.674,838.486 146.5,839.5C 146.229,837.62 146.896,836.287 148.5,835.5 Z"/></g>
<g><path style="opacity:0.118" fill="#e1dddd" d="M 342.5,830.5 C 344.136,834.21 344.802,838.21 344.5,842.5C 343.383,838.705 342.717,834.705 342.5,830.5 Z"/></g>
<g><path style="opacity:0.008" fill="#e1dfdf" d="M 236.5,836.5 C 236.741,838.898 236.074,840.898 234.5,842.5C 234.595,840.214 235.262,838.214 236.5,836.5 Z"/></g>
<g><path style="opacity:0.255" fill="#cecaca" d="M 304.5,840.5 C 307.187,842.394 307.187,843.061 304.5,842.5C 304.5,841.833 304.5,841.167 304.5,840.5 Z"/></g>
<g><path style="opacity:0.047" fill="#e9e8e7" d="M 146.5,839.5 C 146.598,841.553 145.931,843.22 144.5,844.5C 144.402,842.447 145.069,840.78 146.5,839.5 Z"/></g>
<g><path style="opacity:1" fill="#412929" d="M 341.5,821.5 C 342.477,824.287 342.81,827.287 342.5,830.5C 342.717,834.705 343.383,838.705 344.5,842.5C 344.5,843.167 344.5,843.833 344.5,844.5C 344.187,848.042 344.521,851.375 345.5,854.5C 345.5,855.167 345.5,855.833 345.5,856.5C 345.336,859.187 345.503,861.854 346,864.5C 346.383,865.056 346.883,865.389 347.5,865.5C 351.183,867.83 353.683,871.163 355,875.5C 358.326,888.47 361.493,901.47 364.5,914.5C 364.565,917.428 365.232,920.095 366.5,922.5C 368.582,932.049 370.748,941.715 373,951.5C 379.541,972.29 386.375,992.957 393.5,1013.5C 393.66,1015.15 394.326,1016.49 395.5,1017.5C 397.795,1022.42 399.795,1027.42 401.5,1032.5C 401.36,1034.03 400.693,1035.03 399.5,1035.5C 395.434,1035.69 391.434,1035.36 387.5,1034.5C 385.405,1031.12 384.071,1027.46 383.5,1023.5C 383.047,1021.43 382.047,1019.77 380.5,1018.5C 372.048,998.649 363.881,978.649 356,958.5C 343.347,934.531 332.347,909.865 323,884.5C 322.502,881.183 322.335,877.85 322.5,874.5C 324.345,873.005 324.678,871.338 323.5,869.5C 319.468,863.81 315.468,858.143 311.5,852.5C 311.5,852.167 311.5,851.833 311.5,851.5C 310.833,850.167 310.167,848.833 309.5,847.5C 310.967,847.894 312.467,848.227 314,848.5C 323.461,846.841 332.961,845.507 342.5,844.5C 341.857,836.85 341.523,829.183 341.5,821.5 Z"/></g>
<g><path style="opacity:0.017" fill="#e6e3e3" d="M 344.5,844.5 C 345.244,847.36 345.911,850.36 346.5,853.5C 346.376,854.107 346.043,854.44 345.5,854.5C 344.521,851.375 344.187,848.042 344.5,844.5 Z"/></g>
<g><path style="opacity:0.541" fill="#a9a2a1" d="M 308.5,847.5 C 308.833,847.5 309.167,847.5 309.5,847.5C 310.167,848.833 310.833,850.167 311.5,851.5C 311.167,851.5 310.833,851.5 310.5,851.5C 309.326,850.486 308.66,849.153 308.5,847.5 Z"/></g>
<g><path style="opacity:0.776" fill="#8b8382" d="M 174.5,848.5 C 174.34,850.153 173.674,851.486 172.5,852.5C 172.229,850.62 172.896,849.287 174.5,848.5 Z"/></g>
<g><path style="opacity:0.314" fill="#cdc8c8" d="M 232.5,848.5 C 232.405,850.786 231.738,852.786 230.5,854.5C 230.259,852.102 230.926,850.102 232.5,848.5 Z"/></g>
<g><path style="opacity:0.42" fill="#c7c0c0" d="M 230.5,855.5 C 229.733,859.149 228.4,862.482 226.5,865.5C 226.833,863.5 227.167,861.5 227.5,859.5C 228.143,857.924 229.143,856.59 230.5,855.5 Z"/></g>
<g><path style="opacity:1" fill="#402828" d="M 193.5,858.5 C 194.473,858.987 195.473,859.487 196.5,860C 206.867,860.76 217.201,860.594 227.5,859.5C 227.167,861.5 226.833,863.5 226.5,865.5C 224.313,869.895 222.646,874.562 221.5,879.5C 221.737,880.791 221.404,881.791 220.5,882.5C 218.862,883.705 218.529,885.038 219.5,886.5C 220.883,889.861 221.883,893.361 222.5,897C 220.255,904.728 218.588,912.561 217.5,920.5C 215.034,924.018 214.034,928.018 214.5,932.5C 212.128,946.99 208.961,961.323 205,975.5C 202.745,987.784 200.912,1000.12 199.5,1012.5C 197.762,1017.22 197.096,1022.22 197.5,1027.5C 197.605,1031.55 197.272,1035.55 196.5,1039.5C 195.655,1040.67 194.989,1042 194.5,1043.5C 191.332,1044.44 187.999,1044.44 184.5,1043.5C 183.582,1037.23 183.249,1030.89 183.5,1024.5C 185.714,984.532 187.214,944.532 188,904.5C 187.961,897.99 189.461,891.99 192.5,886.5C 194.531,885.461 195.864,883.795 196.5,881.5C 195.22,873.872 194.22,866.206 193.5,858.5 Z"/></g>
<g><path style="opacity:0.651" fill="#bcb4b4" d="M 345.5,856.5 C 346.475,859.311 347.142,862.311 347.5,865.5C 346.883,865.389 346.383,865.056 346,864.5C 345.503,861.854 345.336,859.187 345.5,856.5 Z"/></g>
<g><path style="opacity:0.956" fill="#594e4c" d="M 166.5,867.5 C 165.065,872.49 163.065,877.156 160.5,881.5C 160.337,879.143 160.503,876.81 161,874.5C 161.5,872.667 162.667,871.5 164.5,871C 163.463,869.149 164.13,867.983 166.5,867.5 Z"/></g>
<g><path style="opacity:0.016" fill="#e6e3e3" d="M 323.5,869.5 C 324.678,871.338 324.345,873.005 322.5,874.5C 322.629,872.784 322.962,871.117 323.5,869.5 Z"/></g>
<g><path style="opacity:0.114" fill="#ddd9d9" d="M 226.5,865.5 C 225.921,870.638 224.254,875.305 221.5,879.5C 222.646,874.562 224.313,869.895 226.5,865.5 Z"/></g>
<g><path style="opacity:0.984" fill="#847474" d="M 196.5,881.5 C 195.864,883.795 194.531,885.461 192.5,886.5C 193.08,884.251 194.413,882.585 196.5,881.5 Z"/></g>
<g><path style="opacity:0.192" fill="#d4cfcf" d="M 220.5,882.5 C 220.567,883.959 220.234,885.292 219.5,886.5C 218.529,885.038 218.862,883.705 220.5,882.5 Z"/></g>
<g><path style="opacity:0.349" fill="#a9a3a2" d="M 133.5,893.5 C 133.829,896.228 133.163,898.562 131.5,900.5C 131.41,897.848 132.076,895.515 133.5,893.5 Z"/></g>
<g><path style="opacity:0.937" fill="#796f6e" d="M 151.5,901.5 C 151.008,903.819 150.008,905.819 148.5,907.5C 148.087,904.68 149.087,902.68 151.5,901.5 Z"/></g>
<g><path style="opacity:0.875" fill="#7c7372" d="M 131.5,901.5 C 131.664,904.187 131.497,906.854 131,909.5C 130.722,910.416 130.222,911.082 129.5,911.5C 129.753,907.96 130.419,904.627 131.5,901.5 Z"/></g>
<g><path style="opacity:0.165" fill="#d9d7d6" d="M 145.5,914.5 C 145.445,917.614 144.112,919.948 141.5,921.5C 142.584,918.996 143.917,916.663 145.5,914.5 Z"/></g>
<g><path style="opacity:0.502" fill="#b1a7a7" d="M 364.5,914.5 C 366.04,916.838 366.706,919.505 366.5,922.5C 365.232,920.095 364.565,917.428 364.5,914.5 Z"/></g>
<g><path style="opacity:0.949" fill="#7b6969" d="M 217.5,920.5 C 216.992,924.736 215.992,928.736 214.5,932.5C 214.034,928.018 215.034,924.018 217.5,920.5 Z"/></g>
<g><path style="opacity:0.129" fill="#e0e0de" d="M 135.5,935.5 C 136.833,936.167 136.833,936.167 135.5,935.5 Z"/></g>
<g><path style="opacity:0.043" fill="#f4f5f3" d="M 137.5,935.5 C 138.833,936.167 138.833,936.167 137.5,935.5 Z"/></g>
<g><path style="opacity:0.008" fill="#ebe8e8" d="M 393.5,1013.5 C 395.104,1014.29 395.771,1015.62 395.5,1017.5C 394.326,1016.49 393.66,1015.15 393.5,1013.5 Z"/></g>
<g><path style="opacity:0.988" fill="#756363" d="M 199.5,1012.5 C 199.392,1017.71 198.725,1022.71 197.5,1027.5C 197.096,1022.22 197.762,1017.22 199.5,1012.5 Z"/></g>
<g><path style="opacity:0.298" fill="#d1cbcb" d="M 380.5,1018.5 C 382.047,1019.77 383.047,1021.43 383.5,1023.5C 381.592,1022.51 380.592,1020.85 380.5,1018.5 Z"/></g>
<g><path style="opacity:0.729" fill="#7f6f6f" d="M 183.5,1024.5 C 183.249,1030.89 183.582,1037.23 184.5,1043.5C 183.883,1043.39 183.383,1043.06 183,1042.5C 182.181,1036.32 182.347,1030.32 183.5,1024.5 Z"/></g>
<g><path style="opacity:0.224" fill="#c8c1c1" d="M 387.5,1034.5 C 391.434,1035.36 395.434,1035.69 399.5,1035.5C 396.024,1036.64 392.358,1036.81 388.5,1036C 387.944,1035.62 387.611,1035.12 387.5,1034.5 Z"/></g>
<g><path style="opacity:0.012" fill="#e0dbdb" d="M 196.5,1039.5 C 196.843,1041.48 196.176,1042.82 194.5,1043.5C 194.989,1042 195.655,1040.67 196.5,1039.5 Z"/></g>
</svg>
