<!-- icon666.com - MILLIONS vector ICONS FREE --><svg id="Layer_1" enable-background="new 0 0 512 512" viewBox="0 0 512 512" xmlns="http://www.w3.org/2000/svg"><path d="m295.09 152.37v207.24c0 4.34-2.27 8.14-6.08 10.15s-8.23 1.76-11.82-.69l-75.51-51.42v-123.33l75.51-51.42c3.59-2.44 8-2.7 11.81-.68 3.81 2.01 6.09 5.81 6.09 10.15zm-152.28 55.84v95.58c0 5.56 4.54 10.09 10.12 10.09h32.77v-115.8h-32.77c-5.58.01-10.12 4.55-10.12 10.13zm369.19 47.79c0 141.16-114.84 256-256 256s-256-114.84-256-256 114.84-256 256-256 256 114.84 256 256zm-200.92-103.63c0-10.21-5.59-19.51-14.59-24.28-9-4.76-19.84-4.15-28.29 1.6l-76.97 52.42h-38.3c-14.4 0-26.11 11.71-26.11 26.11v95.58c0 14.38 11.71 26.08 26.11 26.08h38.3l76.97 52.42c4.67 3.18 10.07 4.79 15.49 4.79 4.38 0 8.78-1.05 12.8-3.18 9-4.76 14.59-14.07 14.59-24.28zm29 154.21c9.89-14.97 15.12-32.47 15.12-50.6s-5.23-35.63-15.12-50.6c-2.43-3.68-7.39-4.69-11.08-2.26-3.68 2.43-4.7 7.39-2.26 11.08 16.52 24.99 16.52 58.57 0 83.57-2.43 3.68-1.42 8.64 2.26 11.08 1.36.9 2.89 1.33 4.4 1.33 2.6-.01 5.15-1.27 6.68-3.6zm45.09-50.58c0-24.05-6.93-47.27-20.03-67.13-2.43-3.68-7.39-4.7-11.07-2.27-3.69 2.43-4.7 7.39-2.27 11.07 23.02 34.89 23.02 81.76 0 116.63-2.43 3.68-1.42 8.64 2.27 11.08 1.36.9 2.88 1.32 4.4 1.32 2.6 0 5.14-1.26 6.68-3.59 13.1-19.85 20.02-43.06 20.02-67.11z" fill="#000000" style="fill: rgb(227, 164, 0);"></path></svg>