<!-- icon666.com - MILLIONS vector ICONS FREE --><svg id="Capa_1" enable-background="new 0 0 480 480" viewBox="0 0 480 480" xmlns="http://www.w3.org/2000/svg"><g><g id="Layer_2_2_"><path d="m240 0c-132.548 0-240 107.452-240 240s107.452 240 240 240 240-107.452 240-240-107.452-240-240-240zm0 448c-114.875 0-208-93.125-208-208s93.125-208 208-208 208 93.125 208 208-93.125 208-208 208z" fill="#000000" style="fill: rgb(137, 68, 31);"></path><path d="m329.28 110.4c-5.302-7.069-15.331-8.502-22.4-3.2l-148.64 112c-6.562 4.933-10.51 12.593-10.72 20.8-.013 8.394 3.967 16.294 10.72 21.28l148.64 112c2.77 2.077 6.138 3.2 9.6 3.2 5.036 0 9.778-2.371 12.8-6.4 5.302-7.069 3.869-17.098-3.2-22.4l-143.04-107.68 143.04-107.2c7.069-5.302 8.502-15.331 3.2-22.4z" fill="#000000" style="fill: rgb(137, 68, 31);"></path></g></g></svg>