<!-- icon666.com - MILLIONS vector ICONS FREE --><svg viewBox="0 0 100 100" xmlns="http://www.w3.org/2000/svg"><g id="Layer_2" data-name="Layer 2"><g id="Layer_1-2" fill="rgb(0,0,0)" data-name="Layer 1"><path d="m64.25 34.4a1.39 1.39 0 0 0 -1.76 2.16 17.54 17.54 0 0 1 .39 26.9 1.39 1.39 0 0 0 1.81 2.12 20.3 20.3 0 0 0 -.44-31.18z" fill="rgb(0,0,0)" style="fill: rgb(137, 68, 31);"></path><path d="m50 0a50 50 0 1 0 50 50 50 50 0 0 0 -50-50zm0 97.2a47.2 47.2 0 1 1 47.2-47.2 47.2 47.2 0 0 1 -47.2 47.2z" fill="rgb(0,0,0)" style="fill: rgb(137, 68, 31);"></path><path d="m69.53 26a1.4 1.4 0 0 0 -1.53 2.38 25.64 25.64 0 0 1 .15 43.25 1.4 1.4 0 0 0 1.55 2.37 28.42 28.42 0 0 0 -.17-48z" fill="rgb(0,0,0)" style="fill: rgb(137, 68, 31);"></path><path d="m50.39 22.53-22.07 13.26a3.54 3.54 0 0 0 -.86.72 3.54 3.54 0 0 0 -1.46-.31h-5.34a3.45 3.45 0 0 0 -3.44 3.43v20.74a3.45 3.45 0 0 0 3.44 3.43h5.34a3.35 3.35 0 0 0 1.45-.32 3.84 3.84 0 0 0 .87.73l22.07 13.26a3.44 3.44 0 0 0 5.21-3v-49a3.44 3.44 0 0 0 -5.21-2.94zm-23.74 37.84a.64.64 0 0 1 -.65.63h-5.34a.64.64 0 0 1 -.64-.66v-20.71a.65.65 0 0 1 .64-.66h5.34a.69.69 0 0 1 .65.66zm26.15 14.15a.64.64 0 0 1 -1 .56l-22.05-13.26a.61.61 0 0 1 -.31-.56v-22.52a.61.61 0 0 1 .31-.56l22.07-13.26a.64.64 0 0 1 1 .56z" fill="rgb(0,0,0)" style="fill: rgb(137, 68, 31);"></path></g></g></svg>