<!-- icon666.com - MILLIONS vector ICONS FREE --><svg id="Layer_1" viewBox="0 0 512 512" xmlns="http://www.w3.org/2000/svg" data-name="Layer 1"><path d="m256 0c-141.159 0-256 114.841-256 256s114.841 256 256 256 256-114.841 256-256-114.841-256-256-256zm0 480c-123.514 0-224-100.486-224-224s100.486-224 224-224 224 100.486 224 224-100.486 224-224 224zm-9.171-377.111-157.085 109.875a16 16 0 1 0 18.341 26.222l19.753-13.817v170.831a16 16 0 0 0 16 16h224.324a16 16 0 0 0 16-16v-170.83l19.752 13.816a16 16 0 1 0 18.341-26.222l-157.084-109.875a16 16 0 0 0 -18.342 0zm33.481 277.111h-48.62v-81.03h48.62zm71.852-176.6v176.6h-39.852v-97.03a16 16 0 0 0 -16-16h-80.62a16 16 0 0 0 -16 16v97.03h-39.852v-176.6c0-.2-.023-.393-.03-.591l96.192-67.284 96.191 67.283c-.007.198-.029.392-.029.592z" fill="#000000" style="fill: rgb(137, 68, 31);"></path></svg>