<!-- icon666.com - MILLIONS vector ICONS FREE --><svg version="1.1" id="Capa_1" xmlns="http://www.w3.org/2000/svg" xmlns:xlink="http://www.w3.org/1999/xlink" x="0px" y="0px" viewBox="0 0 310.284 310.284" style="enable-background:new 0 0 310.284 310.284;" xml:space="preserve"><path d="M155.142,0C69.597,0,0,69.597,0,155.142s69.597,155.142,155.142,155.142s155.142-69.597,155.142-155.142 S240.688,0,155.142,0z M130.392,212.864c0,9.665-7.835,17.5-17.5,17.5s-17.5-7.835-17.5-17.5v-115c0-9.665,7.835-17.5,17.5-17.5 s17.5,7.835,17.5,17.5V212.864z M209.392,212.864c0,9.665-7.835,17.5-17.5,17.5s-17.5-7.835-17.5-17.5v-115 c0-9.665,7.835-17.5,17.5-17.5s17.5,7.835,17.5,17.5V212.864z" fill="#000000" style="fill: rgb(137, 68, 31);"></path></svg>