<!-- icon666.com - MILLIONS vector ICONS FREE --><svg id="Layer_1" enable-background="new 0 0 512 512" viewBox="0 0 512 512" xmlns="http://www.w3.org/2000/svg"><path clip-rule="evenodd" d="m256 0c141.385 0 256 114.615 256 256s-114.615 256-256 256-256-114.615-256-256 114.615-256 256-256zm-83.217 346.77 80.389 67.42c6.66 5.586 15.863 5.417 23.554 1.364s12.188-11.508 12.188-20.201v-139.353-139.352c0-8.693-4.498-16.148-12.189-20.201-7.69-4.053-16.892-4.222-23.553 1.364l-80.39 67.42h-62.965c-8.974 0-16.316 7.343-16.316 16.316v148.908c0 8.973 7.343 16.315 16.316 16.315zm142.589-151.069c16.65 16.65 24.975 38.475 24.975 60.299 0 21.825-8.325 43.649-24.975 60.3-4.23 4.23-4.23 11.089 0 15.319s11.089 4.23 15.319 0c20.882-20.882 31.323-48.251 31.323-75.619s-10.441-54.737-31.323-75.618c-4.23-4.23-11.089-4.23-15.319 0s-4.23 11.089 0 15.319zm39.942-39.941c27.68 27.68 41.52 63.96 41.52 100.241s-13.84 72.561-41.52 100.241c-4.23 4.23-4.23 11.089 0 15.319s11.089 4.23 15.319 0c31.912-31.912 47.867-73.736 47.867-115.56s-15.956-83.648-47.868-115.56c-4.23-4.23-11.089-4.23-15.319 0s-4.23 11.088.001 15.319z" fill-rule="evenodd" fill="#000000" style="fill: rgb(137, 68, 31);"></path></svg>